%
M48
M72
T01C0.01969
T02C0.03150
T03C0.03200
T04C0.03937
T05C0.04000
T06C0.04400
T07C0.12598
T08C0.13000
%
T01
X136358Y112000
X135358Y117000
X155358Y126000
X166358Y127000
X171358Y127000
X176358Y127000
X181358Y127000
X194358Y133000
X166358Y151000
X162358Y143000
X157358Y147000
X157358Y158000
X146358Y160000
X146358Y165000
X122358Y166000
X122358Y147000
X161358Y186000
X173358Y176000
X178358Y176000
X178358Y171000
X173358Y171000
X183358Y171000
X183358Y176000
X144358Y217000
X144358Y222000
X144358Y227000
X144358Y232000
X150358Y245000
X155358Y245000
X138358Y92000
X137358Y84000
X137358Y78000
X163358Y63000
X168358Y63000
X173358Y63000
X173358Y58000
X168358Y58000
X163358Y58000
X198484Y78409
T02
X205358Y82000
X205358Y72000
X205358Y62000
X205358Y52000
X205358Y42000
X205358Y92000
X205358Y102000
X205358Y112000
X205358Y122000
X205358Y132000
X205358Y142000
X205358Y152000
X205358Y162000
X205358Y172000
X205358Y182000
X115358Y182000
X115358Y172000
X115358Y162000
X115358Y152000
X115358Y142000
X115358Y132000
X115358Y122000
X115358Y112000
X115358Y102000
X115358Y92000
X115358Y82000
X115358Y72000
X115358Y62000
X115358Y52000
X115358Y42000
T03
X133555Y45165
X133555Y35165
X151633Y35551
X151633Y45551
X147366Y58646
X168082Y45551
X168082Y35551
X185161Y35630
X185161Y45630
X187366Y58646
X165358Y137000
X145358Y137000
X141263Y171016
X128783Y171016
X128783Y191016
X141263Y191016
X175122Y206528
X195122Y206528
T04
X190358Y255520
X180358Y255520
X170358Y255520
X160358Y255520
X150358Y255520
X140358Y255520
X130358Y255520
X145358Y265000
X145358Y273000
X155358Y273000
X155358Y265000
X165358Y265000
X165358Y273000
X175358Y273000
X175358Y265000
T05
X165358Y288000
X155358Y288000
X205358Y247000
X205358Y237000
X205358Y227000
X205358Y217000
X134319Y137843
X133358Y60000
X152366Y13843
X162366Y13843
X172366Y13843
T06
X185358Y222000
X185358Y232000
X185358Y242000
T07
X115358Y17000
X205358Y17000
X205358Y282000
X115358Y282000
T08
X116358Y232000
M30
