G75*
%MOIN*%
%OFA0B0*%
%FSLAX25Y25*%
%IPPOS*%
%LPD*%
%AMOC8*
5,1,8,0,0,1.08239X$1,22.5*
%
%ADD10C,0.00400*%
%ADD11C,0.00800*%
%ADD12C,0.00300*%
%ADD13C,0.00500*%
%ADD14C,0.00600*%
%ADD15R,0.04000X0.06000*%
%ADD16C,0.00200*%
%ADD17R,0.02500X0.03000*%
%ADD18R,0.11000X0.05000*%
%ADD19R,0.07500X0.03000*%
%ADD20C,0.00700*%
%ADD21R,0.02000X0.02000*%
%ADD22R,0.06000X0.04000*%
D10*
X0102823Y0069139D02*
X0102823Y0070006D01*
X0103690Y0070873D01*
X0108027Y0070873D01*
X0108027Y0068271D01*
X0107160Y0067404D01*
X0105425Y0067404D01*
X0104558Y0068271D01*
X0104558Y0070873D01*
X0104558Y0072560D02*
X0104558Y0074295D01*
X0104558Y0073428D02*
X0108027Y0073428D01*
X0108027Y0072560D01*
X0109762Y0073428D02*
X0110630Y0073428D01*
X0108027Y0075998D02*
X0104558Y0075998D01*
X0104558Y0079467D02*
X0107160Y0079467D01*
X0108027Y0078600D01*
X0108027Y0075998D01*
X0106293Y0081154D02*
X0108027Y0083756D01*
X0108027Y0086319D02*
X0108027Y0088053D01*
X0107160Y0088921D01*
X0104558Y0088921D01*
X0104558Y0086319D01*
X0105425Y0085451D01*
X0106293Y0086319D01*
X0106293Y0088921D01*
X0105425Y0090608D02*
X0108895Y0090608D01*
X0109762Y0091475D01*
X0109762Y0093210D01*
X0108895Y0094077D01*
X0107160Y0094077D01*
X0106293Y0093210D01*
X0108027Y0093210D01*
X0108027Y0091475D01*
X0106293Y0091475D01*
X0106293Y0093210D01*
X0105425Y0094077D02*
X0104558Y0093210D01*
X0104558Y0091475D01*
X0105425Y0090608D01*
X0105425Y0095764D02*
X0104558Y0096631D01*
X0104558Y0099234D01*
X0103690Y0099234D02*
X0108027Y0099234D01*
X0108027Y0096631D01*
X0107160Y0095764D01*
X0105425Y0095764D01*
X0102823Y0097499D02*
X0102823Y0098366D01*
X0103690Y0099234D01*
X0104558Y0100920D02*
X0108027Y0100920D01*
X0108027Y0101788D01*
X0107160Y0102655D01*
X0108027Y0103523D01*
X0107160Y0104390D01*
X0104558Y0104390D01*
X0104558Y0102655D02*
X0107160Y0102655D01*
X0105425Y0106077D02*
X0106293Y0106944D01*
X0106293Y0109546D01*
X0107160Y0109546D02*
X0104558Y0109546D01*
X0104558Y0106944D01*
X0105425Y0106077D01*
X0108027Y0106944D02*
X0108027Y0108679D01*
X0107160Y0109546D01*
X0108027Y0111233D02*
X0108027Y0112101D01*
X0104558Y0112101D01*
X0104558Y0112968D02*
X0104558Y0111233D01*
X0104558Y0114671D02*
X0104558Y0116406D01*
X0104558Y0115538D02*
X0109762Y0115538D01*
X0109762Y0114671D01*
X0109762Y0112101D02*
X0110630Y0112101D01*
X0105425Y0118108D02*
X0105425Y0118976D01*
X0104558Y0118976D01*
X0104558Y0118108D01*
X0105425Y0118108D01*
X0105425Y0120687D02*
X0104558Y0121554D01*
X0104558Y0124156D01*
X0105425Y0125843D02*
X0104558Y0126710D01*
X0104558Y0128445D01*
X0105425Y0129313D01*
X0107160Y0129313D01*
X0108027Y0128445D01*
X0108027Y0126710D01*
X0107160Y0125843D01*
X0105425Y0125843D01*
X0108027Y0124156D02*
X0108027Y0121554D01*
X0107160Y0120687D01*
X0105425Y0120687D01*
X0104558Y0130999D02*
X0108027Y0130999D01*
X0108027Y0131867D01*
X0107160Y0132734D01*
X0108027Y0133602D01*
X0107160Y0134469D01*
X0104558Y0134469D01*
X0104558Y0132734D02*
X0107160Y0132734D01*
X0115812Y0100404D02*
X0117547Y0100404D01*
X0116679Y0100404D02*
X0116679Y0095200D01*
X0115812Y0095200D02*
X0117547Y0095200D01*
X0119249Y0095200D02*
X0120984Y0095200D01*
X0120117Y0095200D02*
X0120117Y0100404D01*
X0120984Y0100404D02*
X0119249Y0100404D01*
X0127827Y0097802D02*
X0127827Y0095200D01*
X0127827Y0097802D02*
X0128695Y0098670D01*
X0131297Y0098670D01*
X0131297Y0095200D01*
X0132984Y0096067D02*
X0132984Y0097802D01*
X0133851Y0098670D01*
X0135586Y0098670D01*
X0136453Y0097802D01*
X0136453Y0096067D01*
X0135586Y0095200D01*
X0133851Y0095200D01*
X0132984Y0096067D01*
X0138156Y0095200D02*
X0139891Y0095200D01*
X0139023Y0095200D02*
X0139023Y0098670D01*
X0139891Y0098670D01*
X0141594Y0098670D02*
X0143328Y0098670D01*
X0142461Y0099537D02*
X0142461Y0096067D01*
X0141594Y0095200D01*
X0145015Y0095200D02*
X0145015Y0097802D01*
X0145883Y0098670D01*
X0147617Y0098670D01*
X0147617Y0096935D02*
X0145015Y0096935D01*
X0145015Y0095200D02*
X0147617Y0095200D01*
X0148485Y0096067D01*
X0147617Y0096935D01*
X0150188Y0098670D02*
X0151922Y0098670D01*
X0151055Y0099537D02*
X0151055Y0096067D01*
X0150188Y0095200D01*
X0149196Y0092272D02*
X0149196Y0091404D01*
X0149196Y0089670D02*
X0149196Y0086200D01*
X0150063Y0086200D02*
X0148328Y0086200D01*
X0151750Y0087067D02*
X0151750Y0088802D01*
X0153485Y0088802D01*
X0155219Y0087067D02*
X0154352Y0086200D01*
X0152617Y0086200D01*
X0151750Y0087067D01*
X0150063Y0089670D02*
X0149196Y0089670D01*
X0151750Y0090537D02*
X0152617Y0091404D01*
X0154352Y0091404D01*
X0155219Y0090537D01*
X0155219Y0087067D01*
X0156906Y0087935D02*
X0160376Y0087935D01*
X0160376Y0088802D02*
X0159508Y0089670D01*
X0157774Y0089670D01*
X0156906Y0088802D01*
X0156906Y0087935D01*
X0157774Y0086200D02*
X0159508Y0086200D01*
X0160376Y0087067D01*
X0160376Y0088802D01*
X0162063Y0089670D02*
X0163797Y0086200D01*
X0165532Y0089670D01*
X0167219Y0090537D02*
X0168086Y0091404D01*
X0169821Y0091404D01*
X0170689Y0090537D01*
X0170689Y0089670D01*
X0169821Y0088802D01*
X0168086Y0088802D01*
X0167219Y0087935D01*
X0167219Y0087067D01*
X0168086Y0086200D01*
X0169821Y0086200D01*
X0170689Y0087067D01*
X0177532Y0086200D02*
X0180134Y0086200D01*
X0181001Y0087067D01*
X0181001Y0089670D01*
X0182688Y0088802D02*
X0183556Y0089670D01*
X0186158Y0089670D01*
X0186158Y0091404D02*
X0186158Y0086200D01*
X0183556Y0086200D01*
X0182688Y0087067D01*
X0182688Y0088802D01*
X0177532Y0089670D02*
X0177532Y0085333D01*
X0178399Y0084465D01*
X0179267Y0084465D01*
X0179399Y0095200D02*
X0181134Y0095200D01*
X0182001Y0096067D01*
X0182001Y0097802D01*
X0181134Y0098670D01*
X0179399Y0098670D01*
X0178532Y0097802D01*
X0178532Y0096935D01*
X0182001Y0096935D01*
X0183688Y0096935D02*
X0183688Y0096067D01*
X0184556Y0095200D01*
X0186290Y0095200D01*
X0187158Y0096067D01*
X0186290Y0097802D02*
X0184556Y0097802D01*
X0183688Y0096935D01*
X0183688Y0099537D02*
X0184556Y0100404D01*
X0186290Y0100404D01*
X0187158Y0099537D01*
X0187158Y0098670D01*
X0186290Y0097802D01*
X0176845Y0098670D02*
X0176845Y0095200D01*
X0173375Y0095200D02*
X0173375Y0097802D01*
X0174243Y0098670D01*
X0176845Y0098670D01*
X0171689Y0097802D02*
X0170821Y0098670D01*
X0168219Y0098670D01*
X0166532Y0097802D02*
X0166532Y0096067D01*
X0165665Y0095200D01*
X0163930Y0095200D01*
X0163063Y0096067D01*
X0163063Y0097802D01*
X0163930Y0098670D01*
X0165665Y0098670D01*
X0166532Y0097802D01*
X0168219Y0096067D02*
X0169086Y0096935D01*
X0170821Y0096935D01*
X0171689Y0097802D01*
X0171689Y0095200D02*
X0169086Y0095200D01*
X0168219Y0096067D01*
X0161376Y0095200D02*
X0161376Y0098670D01*
X0159641Y0098670D02*
X0158774Y0098670D01*
X0159641Y0098670D02*
X0161376Y0096935D01*
X0157079Y0096067D02*
X0156211Y0095200D01*
X0154477Y0095200D01*
X0153609Y0096067D01*
X0153609Y0096935D01*
X0154477Y0097802D01*
X0156211Y0097802D01*
X0157079Y0098670D01*
X0157079Y0099537D01*
X0156211Y0100404D01*
X0154477Y0100404D01*
X0153609Y0099537D01*
X0139023Y0100404D02*
X0139023Y0101272D01*
X0109762Y0081154D02*
X0104558Y0081154D01*
X0106293Y0081154D02*
X0104558Y0083756D01*
X0104558Y0065693D02*
X0104558Y0064826D01*
X0105425Y0064826D01*
X0105425Y0065693D01*
X0104558Y0065693D01*
X0104558Y0063139D02*
X0107160Y0063139D01*
X0108027Y0062271D01*
X0108027Y0059669D01*
X0104558Y0059669D01*
X0106293Y0057982D02*
X0106293Y0054513D01*
X0107160Y0054513D02*
X0108027Y0055380D01*
X0108027Y0057115D01*
X0107160Y0057982D01*
X0106293Y0057982D01*
X0104558Y0057115D02*
X0104558Y0055380D01*
X0105425Y0054513D01*
X0107160Y0054513D01*
X0108027Y0052826D02*
X0104558Y0051091D01*
X0108027Y0049356D01*
X0108027Y0047670D02*
X0108027Y0045067D01*
X0107160Y0044200D01*
X0106293Y0045067D01*
X0106293Y0046802D01*
X0105425Y0047670D01*
X0104558Y0046802D01*
X0104558Y0044200D01*
D11*
X0130358Y0032000D02*
X0130358Y0022000D01*
X0140358Y0022000D01*
X0140358Y0032000D01*
X0130358Y0032000D01*
X0145358Y0032000D02*
X0145358Y0017000D01*
X0110358Y0017000D01*
X0110358Y0207000D01*
X0130358Y0207000D01*
X0130358Y0117000D01*
X0190358Y0117000D01*
X0190358Y0207000D01*
X0130358Y0207000D01*
X0140358Y0202000D02*
X0150358Y0202000D01*
X0150358Y0192000D01*
X0155358Y0192000D01*
X0155358Y0202000D01*
X0160358Y0202000D01*
X0160358Y0192000D01*
X0165358Y0192000D01*
X0165358Y0202000D01*
X0170358Y0202000D01*
X0170358Y0192000D01*
X0175358Y0192000D01*
X0175358Y0202000D01*
X0180358Y0202000D01*
X0180358Y0187000D01*
X0190358Y0207000D02*
X0210358Y0207000D01*
X0210358Y0017000D01*
X0175358Y0017000D01*
X0175358Y0032000D01*
X0145358Y0032000D01*
X0145358Y0017000D02*
X0175358Y0017000D01*
X0180358Y0022000D02*
X0190358Y0022000D01*
X0190358Y0032000D01*
X0180358Y0032000D01*
X0180358Y0022000D01*
D12*
X0193362Y0042150D02*
X0193362Y0045052D01*
X0195297Y0045052D02*
X0193362Y0042150D01*
X0195297Y0042150D02*
X0195297Y0045052D01*
X0196294Y0045052D02*
X0197261Y0045052D01*
X0196778Y0045052D02*
X0196778Y0042150D01*
X0197261Y0042150D02*
X0196294Y0042150D01*
X0198273Y0043117D02*
X0198273Y0045052D01*
X0198273Y0043117D02*
X0199240Y0042150D01*
X0200208Y0043117D01*
X0200208Y0045052D01*
X0199724Y0052150D02*
X0198757Y0052150D01*
X0198273Y0052634D01*
X0198273Y0053601D01*
X0199240Y0053601D01*
X0198273Y0054569D02*
X0198757Y0055052D01*
X0199724Y0055052D01*
X0200208Y0054569D01*
X0200208Y0052634D01*
X0199724Y0052150D01*
X0197261Y0052150D02*
X0197261Y0055052D01*
X0195326Y0052150D01*
X0195326Y0055052D01*
X0194315Y0055052D02*
X0192864Y0055052D01*
X0192380Y0054569D01*
X0192380Y0052634D01*
X0192864Y0052150D01*
X0194315Y0052150D01*
X0194315Y0055052D01*
X0193347Y0062150D02*
X0193347Y0065052D01*
X0192380Y0065052D02*
X0194315Y0065052D01*
X0195326Y0064569D02*
X0195810Y0065052D01*
X0196778Y0065052D01*
X0197261Y0064569D01*
X0197261Y0064085D01*
X0196778Y0063601D01*
X0195810Y0063601D01*
X0195326Y0063117D01*
X0195326Y0062634D01*
X0195810Y0062150D01*
X0196778Y0062150D01*
X0197261Y0062634D01*
X0198273Y0062150D02*
X0199240Y0063117D01*
X0198757Y0063117D02*
X0200208Y0063117D01*
X0200208Y0062150D02*
X0200208Y0065052D01*
X0198757Y0065052D01*
X0198273Y0064569D01*
X0198273Y0063601D01*
X0198757Y0063117D01*
X0198273Y0072150D02*
X0200208Y0072150D01*
X0200208Y0075052D01*
X0198273Y0075052D01*
X0197261Y0075052D02*
X0195326Y0072150D01*
X0195326Y0075052D01*
X0197261Y0075052D02*
X0197261Y0072150D01*
X0199240Y0073601D02*
X0200208Y0073601D01*
X0199724Y0082150D02*
X0200208Y0082634D01*
X0199724Y0082150D02*
X0198757Y0082150D01*
X0198273Y0082634D01*
X0198273Y0083117D01*
X0198757Y0083601D01*
X0199240Y0083601D01*
X0198757Y0083601D02*
X0198273Y0084085D01*
X0198273Y0084569D01*
X0198757Y0085052D01*
X0199724Y0085052D01*
X0200208Y0084569D01*
X0197261Y0085052D02*
X0197261Y0083117D01*
X0196294Y0082150D01*
X0195326Y0083117D01*
X0195326Y0085052D01*
X0194315Y0084569D02*
X0193831Y0085052D01*
X0192864Y0085052D01*
X0192380Y0084569D01*
X0192380Y0084085D01*
X0192864Y0083601D01*
X0192380Y0083117D01*
X0192380Y0082634D01*
X0192864Y0082150D01*
X0193831Y0082150D01*
X0194315Y0082634D01*
X0193347Y0083601D02*
X0192864Y0083601D01*
X0192864Y0092150D02*
X0192380Y0092634D01*
X0192380Y0094569D01*
X0192864Y0095052D01*
X0194315Y0095052D01*
X0194315Y0092150D01*
X0192864Y0092150D01*
X0195326Y0092150D02*
X0195326Y0095052D01*
X0197261Y0095052D02*
X0195326Y0092150D01*
X0197261Y0092150D02*
X0197261Y0095052D01*
X0198273Y0094569D02*
X0198757Y0095052D01*
X0199724Y0095052D01*
X0200208Y0094569D01*
X0200208Y0092634D01*
X0199724Y0092150D01*
X0198757Y0092150D01*
X0198273Y0092634D01*
X0198273Y0093601D01*
X0199240Y0093601D01*
X0198757Y0102150D02*
X0198273Y0102634D01*
X0198757Y0102150D02*
X0199724Y0102150D01*
X0200208Y0102634D01*
X0200208Y0104569D01*
X0199724Y0105052D01*
X0198757Y0105052D01*
X0198273Y0104569D01*
X0197261Y0105052D02*
X0197261Y0102150D01*
X0195326Y0102150D01*
X0194315Y0102150D02*
X0194315Y0105052D01*
X0193831Y0103601D02*
X0192380Y0102150D01*
X0194315Y0103117D02*
X0192380Y0105052D01*
X0192864Y0112150D02*
X0193831Y0112150D01*
X0194315Y0112634D01*
X0192380Y0114569D01*
X0192380Y0112634D01*
X0192864Y0112150D01*
X0194315Y0112634D02*
X0194315Y0114569D01*
X0193831Y0115052D01*
X0192864Y0115052D01*
X0192380Y0114569D01*
X0195326Y0114569D02*
X0195326Y0112634D01*
X0195810Y0112150D01*
X0197261Y0112150D01*
X0197261Y0115052D01*
X0195810Y0115052D01*
X0195326Y0114569D01*
X0198273Y0114569D02*
X0198757Y0115052D01*
X0199724Y0115052D01*
X0200208Y0114569D01*
X0200208Y0114085D01*
X0199724Y0113601D01*
X0198757Y0113601D01*
X0198273Y0113117D01*
X0198273Y0112634D01*
X0198757Y0112150D01*
X0199724Y0112150D01*
X0200208Y0112634D01*
X0199724Y0122150D02*
X0198757Y0122150D01*
X0198273Y0122634D01*
X0197261Y0122150D02*
X0197261Y0125052D01*
X0196294Y0124085D01*
X0195326Y0125052D01*
X0195326Y0122150D01*
X0194315Y0122150D02*
X0192864Y0122150D01*
X0192380Y0122634D01*
X0192380Y0124569D01*
X0192864Y0125052D01*
X0194315Y0125052D01*
X0194315Y0122150D01*
X0198273Y0124569D02*
X0198757Y0125052D01*
X0199724Y0125052D01*
X0200208Y0124569D01*
X0200208Y0122634D01*
X0199724Y0122150D01*
X0199724Y0132150D02*
X0200208Y0132634D01*
X0199724Y0132150D02*
X0198757Y0132150D01*
X0198273Y0132634D01*
X0198273Y0133117D01*
X0198757Y0133601D01*
X0199724Y0133601D01*
X0200208Y0134085D01*
X0200208Y0134569D01*
X0199724Y0135052D01*
X0198757Y0135052D01*
X0198273Y0134569D01*
X0197261Y0135052D02*
X0197261Y0132150D01*
X0195810Y0132150D01*
X0195326Y0132634D01*
X0195326Y0134569D01*
X0195810Y0135052D01*
X0197261Y0135052D01*
X0194315Y0134085D02*
X0193347Y0135052D01*
X0193347Y0132150D01*
X0192380Y0132150D02*
X0194315Y0132150D01*
X0194315Y0142150D02*
X0192380Y0144085D01*
X0192380Y0144569D01*
X0192864Y0145052D01*
X0193831Y0145052D01*
X0194315Y0144569D01*
X0195326Y0144569D02*
X0195810Y0145052D01*
X0197261Y0145052D01*
X0197261Y0142150D01*
X0195810Y0142150D01*
X0195326Y0142634D01*
X0195326Y0144569D01*
X0194315Y0142150D02*
X0192380Y0142150D01*
X0198273Y0142634D02*
X0198757Y0142150D01*
X0199724Y0142150D01*
X0200208Y0142634D01*
X0199724Y0143601D02*
X0198757Y0143601D01*
X0198273Y0143117D01*
X0198273Y0142634D01*
X0199724Y0143601D02*
X0200208Y0144085D01*
X0200208Y0144569D01*
X0199724Y0145052D01*
X0198757Y0145052D01*
X0198273Y0144569D01*
X0198757Y0152150D02*
X0199724Y0152150D01*
X0200208Y0152634D01*
X0199724Y0153601D02*
X0198757Y0153601D01*
X0198273Y0153117D01*
X0198273Y0152634D01*
X0198757Y0152150D01*
X0197261Y0152150D02*
X0197261Y0155052D01*
X0195810Y0155052D01*
X0195326Y0154569D01*
X0195326Y0152634D01*
X0195810Y0152150D01*
X0197261Y0152150D01*
X0198273Y0154569D02*
X0198757Y0155052D01*
X0199724Y0155052D01*
X0200208Y0154569D01*
X0200208Y0154085D01*
X0199724Y0153601D01*
X0194315Y0152634D02*
X0193831Y0152150D01*
X0192864Y0152150D01*
X0192380Y0152634D01*
X0192380Y0153117D01*
X0192864Y0153601D01*
X0193347Y0153601D01*
X0192864Y0153601D02*
X0192380Y0154085D01*
X0192380Y0154569D01*
X0192864Y0155052D01*
X0193831Y0155052D01*
X0194315Y0154569D01*
X0193347Y0162150D02*
X0192380Y0163117D01*
X0192380Y0165052D01*
X0194315Y0165052D02*
X0194315Y0163117D01*
X0193347Y0162150D01*
X0195326Y0162634D02*
X0195810Y0162150D01*
X0196778Y0162150D01*
X0197261Y0162634D01*
X0196778Y0163601D02*
X0195810Y0163601D01*
X0195326Y0163117D01*
X0195326Y0162634D01*
X0196778Y0163601D02*
X0197261Y0164085D01*
X0197261Y0164569D01*
X0196778Y0165052D01*
X0195810Y0165052D01*
X0195326Y0164569D01*
X0198273Y0164569D02*
X0198273Y0163601D01*
X0198757Y0163117D01*
X0200208Y0163117D01*
X0200208Y0162150D02*
X0200208Y0165052D01*
X0198757Y0165052D01*
X0198273Y0164569D01*
X0199240Y0163117D02*
X0198273Y0162150D01*
X0198273Y0172150D02*
X0199240Y0173117D01*
X0198757Y0173117D02*
X0200208Y0173117D01*
X0200208Y0172150D02*
X0200208Y0175052D01*
X0198757Y0175052D01*
X0198273Y0174569D01*
X0198273Y0173601D01*
X0198757Y0173117D01*
X0197261Y0172634D02*
X0196778Y0172150D01*
X0195810Y0172150D01*
X0195326Y0172634D01*
X0195326Y0173117D01*
X0195810Y0173601D01*
X0196778Y0173601D01*
X0197261Y0174085D01*
X0197261Y0174569D01*
X0196778Y0175052D01*
X0195810Y0175052D01*
X0195326Y0174569D01*
X0194315Y0175052D02*
X0194315Y0173117D01*
X0193347Y0172150D01*
X0192380Y0173117D01*
X0192380Y0175052D01*
X0192864Y0182150D02*
X0193831Y0182150D01*
X0194315Y0182634D01*
X0192380Y0184569D01*
X0192380Y0182634D01*
X0192864Y0182150D01*
X0194315Y0182634D02*
X0194315Y0184569D01*
X0193831Y0185052D01*
X0192864Y0185052D01*
X0192380Y0184569D01*
X0195326Y0184569D02*
X0195326Y0182634D01*
X0195810Y0182150D01*
X0197261Y0182150D01*
X0197261Y0185052D01*
X0195810Y0185052D01*
X0195326Y0184569D01*
X0198273Y0184085D02*
X0198273Y0182150D01*
X0198273Y0183601D02*
X0200208Y0183601D01*
X0200208Y0184085D02*
X0200208Y0182150D01*
X0200208Y0184085D02*
X0199240Y0185052D01*
X0198273Y0184085D01*
X0129047Y0175052D02*
X0128564Y0175536D01*
X0127596Y0174569D01*
X0127112Y0175052D01*
X0126101Y0175052D02*
X0124650Y0175052D01*
X0124166Y0174569D01*
X0124166Y0172634D01*
X0124650Y0172150D01*
X0126101Y0172150D01*
X0126101Y0175052D01*
X0123154Y0174085D02*
X0122187Y0175052D01*
X0122187Y0172150D01*
X0123154Y0172150D02*
X0121219Y0172150D01*
X0121703Y0165052D02*
X0122671Y0165052D01*
X0123154Y0164569D01*
X0124166Y0164569D02*
X0124650Y0165052D01*
X0126101Y0165052D01*
X0126101Y0162150D01*
X0124650Y0162150D01*
X0124166Y0162634D01*
X0124166Y0164569D01*
X0121703Y0165052D02*
X0121219Y0164569D01*
X0121219Y0164085D01*
X0123154Y0162150D01*
X0121219Y0162150D01*
X0127112Y0165052D02*
X0127596Y0164569D01*
X0128564Y0165536D01*
X0129047Y0165052D01*
X0128564Y0155536D02*
X0127596Y0154569D01*
X0127112Y0155052D01*
X0126101Y0155052D02*
X0124650Y0155052D01*
X0124166Y0154569D01*
X0124166Y0152634D01*
X0124650Y0152150D01*
X0126101Y0152150D01*
X0126101Y0155052D01*
X0128564Y0155536D02*
X0129047Y0155052D01*
X0123154Y0154569D02*
X0122671Y0155052D01*
X0121703Y0155052D01*
X0121219Y0154569D01*
X0121219Y0154085D01*
X0121703Y0153601D01*
X0121219Y0153117D01*
X0121219Y0152634D01*
X0121703Y0152150D01*
X0122671Y0152150D01*
X0123154Y0152634D01*
X0122187Y0153601D02*
X0121703Y0153601D01*
X0121703Y0145052D02*
X0123154Y0143601D01*
X0121219Y0143601D01*
X0121703Y0142150D02*
X0121703Y0145052D01*
X0124166Y0144569D02*
X0124650Y0145052D01*
X0126101Y0145052D01*
X0126101Y0142150D01*
X0124650Y0142150D01*
X0124166Y0142634D01*
X0124166Y0144569D01*
X0127112Y0145052D02*
X0127596Y0144569D01*
X0128564Y0145536D01*
X0129047Y0145052D01*
X0128564Y0135052D02*
X0127596Y0135052D01*
X0127112Y0134569D01*
X0127112Y0134085D01*
X0127596Y0133601D01*
X0127112Y0133117D01*
X0127112Y0132634D01*
X0127596Y0132150D01*
X0128564Y0132150D01*
X0129047Y0132634D01*
X0128080Y0133601D02*
X0127596Y0133601D01*
X0126101Y0133117D02*
X0125133Y0132150D01*
X0124166Y0133117D01*
X0124166Y0135052D01*
X0123154Y0134569D02*
X0122671Y0135052D01*
X0121703Y0135052D01*
X0121219Y0134569D01*
X0121219Y0134085D01*
X0121703Y0133601D01*
X0121219Y0133117D01*
X0121219Y0132634D01*
X0121703Y0132150D01*
X0122671Y0132150D01*
X0123154Y0132634D01*
X0122187Y0133601D02*
X0121703Y0133601D01*
X0126101Y0133117D02*
X0126101Y0135052D01*
X0128564Y0135052D02*
X0129047Y0134569D01*
X0128564Y0125052D02*
X0129047Y0124569D01*
X0129047Y0122634D01*
X0128564Y0122150D01*
X0127596Y0122150D01*
X0127112Y0122634D01*
X0127112Y0123601D01*
X0128080Y0123601D01*
X0127112Y0124569D02*
X0127596Y0125052D01*
X0128564Y0125052D01*
X0126101Y0125052D02*
X0124166Y0122150D01*
X0124166Y0125052D01*
X0123154Y0125052D02*
X0121703Y0125052D01*
X0121219Y0124569D01*
X0121219Y0122634D01*
X0121703Y0122150D01*
X0123154Y0122150D01*
X0123154Y0125052D01*
X0126101Y0125052D02*
X0126101Y0122150D01*
X0128564Y0115536D02*
X0127596Y0114569D01*
X0127112Y0115052D01*
X0126101Y0115052D02*
X0124650Y0115052D01*
X0124166Y0114569D01*
X0124166Y0112634D01*
X0124650Y0112150D01*
X0126101Y0112150D01*
X0126101Y0115052D01*
X0128564Y0115536D02*
X0129047Y0115052D01*
X0123154Y0115052D02*
X0123154Y0113601D01*
X0122187Y0114085D01*
X0121703Y0114085D01*
X0121219Y0113601D01*
X0121219Y0112634D01*
X0121703Y0112150D01*
X0122671Y0112150D01*
X0123154Y0112634D01*
X0123154Y0115052D02*
X0121219Y0115052D01*
X0121219Y0105052D02*
X0122187Y0104569D01*
X0123154Y0103601D01*
X0121703Y0103601D01*
X0121219Y0103117D01*
X0121219Y0102634D01*
X0121703Y0102150D01*
X0122671Y0102150D01*
X0123154Y0102634D01*
X0123154Y0103601D01*
X0124166Y0102634D02*
X0124166Y0104569D01*
X0124650Y0105052D01*
X0126101Y0105052D01*
X0126101Y0102150D01*
X0124650Y0102150D01*
X0124166Y0102634D01*
X0127112Y0105052D02*
X0127596Y0104569D01*
X0128564Y0105536D01*
X0129047Y0105052D01*
X0128564Y0095536D02*
X0127596Y0094569D01*
X0127112Y0095052D01*
X0126101Y0095052D02*
X0124650Y0095052D01*
X0124166Y0094569D01*
X0124166Y0092634D01*
X0124650Y0092150D01*
X0126101Y0092150D01*
X0126101Y0095052D01*
X0128564Y0095536D02*
X0129047Y0095052D01*
X0123154Y0095052D02*
X0121219Y0095052D01*
X0121219Y0094569D01*
X0123154Y0092634D01*
X0123154Y0092150D01*
X0122671Y0085052D02*
X0121703Y0085052D01*
X0121219Y0084569D01*
X0121219Y0084085D01*
X0121703Y0083601D01*
X0122671Y0083601D01*
X0123154Y0084085D01*
X0123154Y0084569D01*
X0122671Y0085052D01*
X0122671Y0083601D02*
X0123154Y0083117D01*
X0123154Y0082634D01*
X0122671Y0082150D01*
X0121703Y0082150D01*
X0121219Y0082634D01*
X0121219Y0083117D01*
X0121703Y0083601D01*
X0124166Y0082634D02*
X0124166Y0084569D01*
X0124650Y0085052D01*
X0126101Y0085052D01*
X0126101Y0082150D01*
X0124650Y0082150D01*
X0124166Y0082634D01*
X0127112Y0085052D02*
X0127596Y0084569D01*
X0128564Y0085536D01*
X0129047Y0085052D01*
X0126101Y0075052D02*
X0124650Y0075052D01*
X0124166Y0074569D01*
X0124166Y0073601D01*
X0124650Y0073117D01*
X0126101Y0073117D01*
X0126101Y0072150D02*
X0126101Y0075052D01*
X0125133Y0073117D02*
X0124166Y0072150D01*
X0123154Y0072150D02*
X0121219Y0075052D01*
X0123154Y0075052D02*
X0121219Y0072150D01*
X0121219Y0065052D02*
X0123154Y0062150D01*
X0121219Y0062150D02*
X0123154Y0065052D01*
X0124166Y0065052D02*
X0126101Y0065052D01*
X0125133Y0065052D02*
X0125133Y0062150D01*
X0124166Y0055052D02*
X0124166Y0052150D01*
X0126101Y0055052D01*
X0126101Y0052150D01*
X0127112Y0052634D02*
X0127112Y0053601D01*
X0128080Y0053601D01*
X0129047Y0052634D02*
X0128564Y0052150D01*
X0127596Y0052150D01*
X0127112Y0052634D01*
X0127112Y0054569D02*
X0127596Y0055052D01*
X0128564Y0055052D01*
X0129047Y0054569D01*
X0129047Y0052634D01*
X0123154Y0052150D02*
X0123154Y0055052D01*
X0121703Y0055052D01*
X0121219Y0054569D01*
X0121219Y0052634D01*
X0121703Y0052150D01*
X0123154Y0052150D01*
X0122671Y0045052D02*
X0121703Y0045052D01*
X0121219Y0044569D01*
X0121219Y0044085D01*
X0121703Y0043601D01*
X0121219Y0043117D01*
X0121219Y0042634D01*
X0121703Y0042150D01*
X0122671Y0042150D01*
X0123154Y0042634D01*
X0124166Y0043117D02*
X0124166Y0045052D01*
X0123154Y0044569D02*
X0122671Y0045052D01*
X0122187Y0043601D02*
X0121703Y0043601D01*
X0124166Y0043117D02*
X0125133Y0042150D01*
X0126101Y0043117D01*
X0126101Y0045052D01*
X0127112Y0044569D02*
X0127112Y0044085D01*
X0127596Y0043601D01*
X0127112Y0043117D01*
X0127112Y0042634D01*
X0127596Y0042150D01*
X0128564Y0042150D01*
X0129047Y0042634D01*
X0128080Y0043601D02*
X0127596Y0043601D01*
X0127112Y0044569D02*
X0127596Y0045052D01*
X0128564Y0045052D01*
X0129047Y0044569D01*
X0126101Y0182150D02*
X0124650Y0182150D01*
X0124166Y0182634D01*
X0124166Y0184569D01*
X0124650Y0185052D01*
X0126101Y0185052D01*
X0126101Y0182150D01*
X0123154Y0182634D02*
X0123154Y0184569D01*
X0122671Y0185052D01*
X0121703Y0185052D01*
X0121219Y0184569D01*
X0123154Y0182634D01*
X0122671Y0182150D01*
X0121703Y0182150D01*
X0121219Y0182634D01*
X0121219Y0184569D01*
D13*
X0127841Y0183911D02*
X0128089Y0181173D01*
X0128089Y0181173D01*
X0127841Y0178435D01*
X0127840Y0178434D01*
X0127737Y0178446D01*
X0127633Y0178461D01*
X0127531Y0178480D01*
X0127429Y0178504D01*
X0127328Y0178531D01*
X0127229Y0178561D01*
X0127130Y0178596D01*
X0127033Y0178634D01*
X0126938Y0178676D01*
X0126844Y0178722D01*
X0126752Y0178771D01*
X0126661Y0178823D01*
X0126573Y0178879D01*
X0126487Y0178938D01*
X0126404Y0179001D01*
X0126323Y0179066D01*
X0126244Y0179135D01*
X0126168Y0179206D01*
X0126095Y0179281D01*
X0126024Y0179358D01*
X0125957Y0179437D01*
X0125893Y0179520D01*
X0125831Y0179604D01*
X0125774Y0179691D01*
X0125719Y0179780D01*
X0125668Y0179871D01*
X0125620Y0179964D01*
X0125576Y0180058D01*
X0125536Y0180154D01*
X0125499Y0180252D01*
X0125466Y0180351D01*
X0125436Y0180451D01*
X0125411Y0180552D01*
X0125389Y0180654D01*
X0125372Y0180757D01*
X0125358Y0180861D01*
X0125348Y0180964D01*
X0125342Y0181069D01*
X0125340Y0181173D01*
X0125342Y0181277D01*
X0125348Y0181382D01*
X0125358Y0181485D01*
X0125372Y0181589D01*
X0125389Y0181692D01*
X0125411Y0181794D01*
X0125436Y0181895D01*
X0125466Y0181995D01*
X0125499Y0182094D01*
X0125536Y0182192D01*
X0125576Y0182288D01*
X0125620Y0182382D01*
X0125668Y0182475D01*
X0125719Y0182566D01*
X0125774Y0182655D01*
X0125831Y0182742D01*
X0125893Y0182826D01*
X0125957Y0182909D01*
X0126024Y0182988D01*
X0126095Y0183065D01*
X0126168Y0183140D01*
X0126244Y0183211D01*
X0126323Y0183280D01*
X0126404Y0183345D01*
X0126487Y0183408D01*
X0126573Y0183467D01*
X0126661Y0183523D01*
X0126752Y0183575D01*
X0126844Y0183624D01*
X0126938Y0183670D01*
X0127033Y0183712D01*
X0127130Y0183750D01*
X0127229Y0183785D01*
X0127328Y0183815D01*
X0127429Y0183842D01*
X0127531Y0183866D01*
X0127633Y0183885D01*
X0127737Y0183900D01*
X0127840Y0183912D01*
X0127841Y0183435D01*
X0127746Y0183423D01*
X0127653Y0183407D01*
X0127560Y0183386D01*
X0127468Y0183362D01*
X0127377Y0183334D01*
X0127288Y0183303D01*
X0127199Y0183268D01*
X0127113Y0183229D01*
X0127028Y0183186D01*
X0126945Y0183140D01*
X0126864Y0183090D01*
X0126785Y0183038D01*
X0126708Y0182981D01*
X0126634Y0182922D01*
X0126562Y0182860D01*
X0126493Y0182795D01*
X0126427Y0182727D01*
X0126363Y0182656D01*
X0126303Y0182583D01*
X0126246Y0182507D01*
X0126192Y0182429D01*
X0126141Y0182348D01*
X0126094Y0182266D01*
X0126050Y0182182D01*
X0126009Y0182096D01*
X0125973Y0182008D01*
X0125940Y0181919D01*
X0125910Y0181829D01*
X0125885Y0181737D01*
X0125863Y0181645D01*
X0125846Y0181551D01*
X0125832Y0181457D01*
X0125822Y0181363D01*
X0125816Y0181268D01*
X0125814Y0181173D01*
X0125816Y0181078D01*
X0125822Y0180983D01*
X0125832Y0180889D01*
X0125846Y0180795D01*
X0125863Y0180701D01*
X0125885Y0180609D01*
X0125910Y0180517D01*
X0125940Y0180427D01*
X0125973Y0180338D01*
X0126009Y0180250D01*
X0126050Y0180164D01*
X0126094Y0180080D01*
X0126141Y0179998D01*
X0126192Y0179917D01*
X0126246Y0179839D01*
X0126303Y0179763D01*
X0126363Y0179690D01*
X0126427Y0179619D01*
X0126493Y0179551D01*
X0126562Y0179486D01*
X0126634Y0179424D01*
X0126708Y0179365D01*
X0126785Y0179308D01*
X0126864Y0179256D01*
X0126945Y0179206D01*
X0127028Y0179160D01*
X0127113Y0179117D01*
X0127199Y0179078D01*
X0127288Y0179043D01*
X0127377Y0179012D01*
X0127468Y0178984D01*
X0127560Y0178960D01*
X0127653Y0178939D01*
X0127746Y0178923D01*
X0127841Y0178911D01*
X0127841Y0179388D01*
X0127759Y0179402D01*
X0127677Y0179419D01*
X0127597Y0179440D01*
X0127517Y0179464D01*
X0127439Y0179493D01*
X0127362Y0179525D01*
X0127287Y0179560D01*
X0127213Y0179599D01*
X0127141Y0179641D01*
X0127071Y0179686D01*
X0127004Y0179735D01*
X0126939Y0179787D01*
X0126876Y0179841D01*
X0126816Y0179899D01*
X0126758Y0179959D01*
X0126704Y0180022D01*
X0126652Y0180087D01*
X0126603Y0180155D01*
X0126558Y0180224D01*
X0126516Y0180296D01*
X0126477Y0180370D01*
X0126442Y0180445D01*
X0126410Y0180522D01*
X0126381Y0180600D01*
X0126357Y0180680D01*
X0126336Y0180760D01*
X0126319Y0180842D01*
X0126305Y0180924D01*
X0126296Y0181007D01*
X0126290Y0181090D01*
X0126288Y0181173D01*
X0126290Y0181256D01*
X0126296Y0181339D01*
X0126305Y0181422D01*
X0126319Y0181504D01*
X0126336Y0181586D01*
X0126357Y0181666D01*
X0126381Y0181746D01*
X0126410Y0181824D01*
X0126442Y0181901D01*
X0126477Y0181976D01*
X0126516Y0182050D01*
X0126558Y0182122D01*
X0126603Y0182191D01*
X0126652Y0182259D01*
X0126704Y0182324D01*
X0126758Y0182387D01*
X0126816Y0182447D01*
X0126876Y0182505D01*
X0126939Y0182559D01*
X0127004Y0182611D01*
X0127071Y0182660D01*
X0127141Y0182705D01*
X0127213Y0182747D01*
X0127287Y0182786D01*
X0127362Y0182821D01*
X0127439Y0182853D01*
X0127517Y0182882D01*
X0127597Y0182906D01*
X0127677Y0182927D01*
X0127759Y0182944D01*
X0127841Y0182958D01*
X0127841Y0182478D01*
X0127771Y0182462D01*
X0127702Y0182443D01*
X0127634Y0182420D01*
X0127567Y0182394D01*
X0127501Y0182363D01*
X0127438Y0182330D01*
X0127376Y0182293D01*
X0127316Y0182252D01*
X0127259Y0182209D01*
X0127204Y0182162D01*
X0127152Y0182113D01*
X0127102Y0182061D01*
X0127055Y0182006D01*
X0127012Y0181948D01*
X0126971Y0181889D01*
X0126934Y0181827D01*
X0126901Y0181764D01*
X0126870Y0181698D01*
X0126844Y0181631D01*
X0126821Y0181563D01*
X0126801Y0181494D01*
X0126786Y0181423D01*
X0126774Y0181352D01*
X0126766Y0181281D01*
X0126762Y0181209D01*
X0126762Y0181137D01*
X0126766Y0181065D01*
X0126774Y0180994D01*
X0126786Y0180923D01*
X0126801Y0180852D01*
X0126821Y0180783D01*
X0126844Y0180715D01*
X0126870Y0180648D01*
X0126901Y0180582D01*
X0126934Y0180519D01*
X0126971Y0180457D01*
X0127012Y0180398D01*
X0127055Y0180340D01*
X0127102Y0180285D01*
X0127152Y0180233D01*
X0127204Y0180184D01*
X0127259Y0180137D01*
X0127316Y0180094D01*
X0127376Y0180053D01*
X0127438Y0180016D01*
X0127501Y0179983D01*
X0127567Y0179952D01*
X0127634Y0179926D01*
X0127702Y0179903D01*
X0127771Y0179884D01*
X0127841Y0179868D01*
X0127844Y0180355D01*
X0127789Y0180374D01*
X0127736Y0180396D01*
X0127685Y0180421D01*
X0127635Y0180450D01*
X0127588Y0180482D01*
X0127542Y0180518D01*
X0127499Y0180556D01*
X0127459Y0180597D01*
X0127422Y0180641D01*
X0127388Y0180687D01*
X0127357Y0180735D01*
X0127329Y0180786D01*
X0127305Y0180838D01*
X0127284Y0180891D01*
X0127267Y0180946D01*
X0127253Y0181002D01*
X0127244Y0181058D01*
X0127238Y0181116D01*
X0127236Y0181173D01*
X0127238Y0181230D01*
X0127244Y0181288D01*
X0127253Y0181344D01*
X0127267Y0181400D01*
X0127284Y0181455D01*
X0127305Y0181508D01*
X0127329Y0181560D01*
X0127357Y0181611D01*
X0127388Y0181659D01*
X0127422Y0181705D01*
X0127459Y0181749D01*
X0127499Y0181790D01*
X0127542Y0181828D01*
X0127588Y0181864D01*
X0127635Y0181896D01*
X0127685Y0181925D01*
X0127736Y0181950D01*
X0127789Y0181972D01*
X0127844Y0181991D01*
X0127858Y0181474D01*
X0127830Y0181450D01*
X0127804Y0181424D01*
X0127782Y0181395D01*
X0127762Y0181365D01*
X0127745Y0181332D01*
X0127731Y0181298D01*
X0127721Y0181263D01*
X0127714Y0181228D01*
X0127710Y0181191D01*
X0127710Y0181155D01*
X0127714Y0181118D01*
X0127721Y0181083D01*
X0127731Y0181048D01*
X0127745Y0181014D01*
X0127762Y0180981D01*
X0127782Y0180951D01*
X0127804Y0180922D01*
X0127830Y0180896D01*
X0127858Y0180872D01*
X0136339Y0178435D02*
X0136091Y0181173D01*
X0136091Y0181173D01*
X0136339Y0183911D01*
X0136340Y0183912D01*
X0136443Y0183900D01*
X0136547Y0183885D01*
X0136649Y0183866D01*
X0136751Y0183842D01*
X0136852Y0183815D01*
X0136951Y0183785D01*
X0137050Y0183750D01*
X0137147Y0183712D01*
X0137242Y0183670D01*
X0137336Y0183624D01*
X0137428Y0183575D01*
X0137519Y0183523D01*
X0137607Y0183467D01*
X0137693Y0183408D01*
X0137776Y0183345D01*
X0137857Y0183280D01*
X0137936Y0183211D01*
X0138012Y0183140D01*
X0138085Y0183065D01*
X0138156Y0182988D01*
X0138223Y0182909D01*
X0138287Y0182826D01*
X0138349Y0182742D01*
X0138406Y0182655D01*
X0138461Y0182566D01*
X0138512Y0182475D01*
X0138560Y0182382D01*
X0138604Y0182288D01*
X0138644Y0182192D01*
X0138681Y0182094D01*
X0138714Y0181995D01*
X0138744Y0181895D01*
X0138769Y0181794D01*
X0138791Y0181692D01*
X0138808Y0181589D01*
X0138822Y0181485D01*
X0138832Y0181382D01*
X0138838Y0181277D01*
X0138840Y0181173D01*
X0138838Y0181069D01*
X0138832Y0180964D01*
X0138822Y0180861D01*
X0138808Y0180757D01*
X0138791Y0180654D01*
X0138769Y0180552D01*
X0138744Y0180451D01*
X0138714Y0180351D01*
X0138681Y0180252D01*
X0138644Y0180154D01*
X0138604Y0180058D01*
X0138560Y0179964D01*
X0138512Y0179871D01*
X0138461Y0179780D01*
X0138406Y0179691D01*
X0138349Y0179604D01*
X0138287Y0179520D01*
X0138223Y0179437D01*
X0138156Y0179358D01*
X0138085Y0179281D01*
X0138012Y0179206D01*
X0137936Y0179135D01*
X0137857Y0179066D01*
X0137776Y0179001D01*
X0137693Y0178938D01*
X0137607Y0178879D01*
X0137519Y0178823D01*
X0137428Y0178771D01*
X0137336Y0178722D01*
X0137242Y0178676D01*
X0137147Y0178634D01*
X0137050Y0178596D01*
X0136951Y0178561D01*
X0136852Y0178531D01*
X0136751Y0178504D01*
X0136649Y0178480D01*
X0136547Y0178461D01*
X0136443Y0178446D01*
X0136340Y0178434D01*
X0136339Y0178911D01*
X0136434Y0178923D01*
X0136527Y0178939D01*
X0136620Y0178960D01*
X0136712Y0178984D01*
X0136803Y0179012D01*
X0136892Y0179043D01*
X0136981Y0179078D01*
X0137067Y0179117D01*
X0137152Y0179160D01*
X0137235Y0179206D01*
X0137316Y0179256D01*
X0137395Y0179308D01*
X0137472Y0179365D01*
X0137546Y0179424D01*
X0137618Y0179486D01*
X0137687Y0179551D01*
X0137753Y0179619D01*
X0137817Y0179690D01*
X0137877Y0179763D01*
X0137934Y0179839D01*
X0137988Y0179917D01*
X0138039Y0179998D01*
X0138086Y0180080D01*
X0138130Y0180164D01*
X0138171Y0180250D01*
X0138207Y0180338D01*
X0138240Y0180427D01*
X0138270Y0180517D01*
X0138295Y0180609D01*
X0138317Y0180701D01*
X0138334Y0180795D01*
X0138348Y0180889D01*
X0138358Y0180983D01*
X0138364Y0181078D01*
X0138366Y0181173D01*
X0138364Y0181268D01*
X0138358Y0181363D01*
X0138348Y0181457D01*
X0138334Y0181551D01*
X0138317Y0181645D01*
X0138295Y0181737D01*
X0138270Y0181829D01*
X0138240Y0181919D01*
X0138207Y0182008D01*
X0138171Y0182096D01*
X0138130Y0182182D01*
X0138086Y0182266D01*
X0138039Y0182348D01*
X0137988Y0182429D01*
X0137934Y0182507D01*
X0137877Y0182583D01*
X0137817Y0182656D01*
X0137753Y0182727D01*
X0137687Y0182795D01*
X0137618Y0182860D01*
X0137546Y0182922D01*
X0137472Y0182981D01*
X0137395Y0183038D01*
X0137316Y0183090D01*
X0137235Y0183140D01*
X0137152Y0183186D01*
X0137067Y0183229D01*
X0136981Y0183268D01*
X0136892Y0183303D01*
X0136803Y0183334D01*
X0136712Y0183362D01*
X0136620Y0183386D01*
X0136527Y0183407D01*
X0136434Y0183423D01*
X0136339Y0183435D01*
X0136339Y0182958D01*
X0136421Y0182944D01*
X0136503Y0182927D01*
X0136583Y0182906D01*
X0136663Y0182882D01*
X0136741Y0182853D01*
X0136818Y0182821D01*
X0136893Y0182786D01*
X0136967Y0182747D01*
X0137039Y0182705D01*
X0137109Y0182660D01*
X0137176Y0182611D01*
X0137241Y0182559D01*
X0137304Y0182505D01*
X0137364Y0182447D01*
X0137422Y0182387D01*
X0137476Y0182324D01*
X0137528Y0182259D01*
X0137577Y0182191D01*
X0137622Y0182122D01*
X0137664Y0182050D01*
X0137703Y0181976D01*
X0137738Y0181901D01*
X0137770Y0181824D01*
X0137799Y0181746D01*
X0137823Y0181666D01*
X0137844Y0181586D01*
X0137861Y0181504D01*
X0137875Y0181422D01*
X0137884Y0181339D01*
X0137890Y0181256D01*
X0137892Y0181173D01*
X0137890Y0181090D01*
X0137884Y0181007D01*
X0137875Y0180924D01*
X0137861Y0180842D01*
X0137844Y0180760D01*
X0137823Y0180680D01*
X0137799Y0180600D01*
X0137770Y0180522D01*
X0137738Y0180445D01*
X0137703Y0180370D01*
X0137664Y0180296D01*
X0137622Y0180224D01*
X0137577Y0180155D01*
X0137528Y0180087D01*
X0137476Y0180022D01*
X0137422Y0179959D01*
X0137364Y0179899D01*
X0137304Y0179841D01*
X0137241Y0179787D01*
X0137176Y0179735D01*
X0137109Y0179686D01*
X0137039Y0179641D01*
X0136967Y0179599D01*
X0136893Y0179560D01*
X0136818Y0179525D01*
X0136741Y0179493D01*
X0136663Y0179464D01*
X0136583Y0179440D01*
X0136503Y0179419D01*
X0136421Y0179402D01*
X0136339Y0179388D01*
X0136339Y0179868D01*
X0136409Y0179884D01*
X0136478Y0179903D01*
X0136546Y0179926D01*
X0136613Y0179952D01*
X0136679Y0179983D01*
X0136742Y0180016D01*
X0136804Y0180053D01*
X0136864Y0180094D01*
X0136921Y0180137D01*
X0136976Y0180184D01*
X0137028Y0180233D01*
X0137078Y0180285D01*
X0137125Y0180340D01*
X0137168Y0180398D01*
X0137209Y0180457D01*
X0137246Y0180519D01*
X0137279Y0180582D01*
X0137310Y0180648D01*
X0137336Y0180715D01*
X0137359Y0180783D01*
X0137379Y0180852D01*
X0137394Y0180923D01*
X0137406Y0180994D01*
X0137414Y0181065D01*
X0137418Y0181137D01*
X0137418Y0181209D01*
X0137414Y0181281D01*
X0137406Y0181352D01*
X0137394Y0181423D01*
X0137379Y0181494D01*
X0137359Y0181563D01*
X0137336Y0181631D01*
X0137310Y0181698D01*
X0137279Y0181764D01*
X0137246Y0181827D01*
X0137209Y0181889D01*
X0137168Y0181948D01*
X0137125Y0182006D01*
X0137078Y0182061D01*
X0137028Y0182113D01*
X0136976Y0182162D01*
X0136921Y0182209D01*
X0136864Y0182252D01*
X0136804Y0182293D01*
X0136742Y0182330D01*
X0136679Y0182363D01*
X0136613Y0182394D01*
X0136546Y0182420D01*
X0136478Y0182443D01*
X0136409Y0182462D01*
X0136339Y0182478D01*
X0136336Y0181991D01*
X0136391Y0181972D01*
X0136444Y0181950D01*
X0136495Y0181925D01*
X0136545Y0181896D01*
X0136592Y0181864D01*
X0136638Y0181828D01*
X0136681Y0181790D01*
X0136721Y0181749D01*
X0136758Y0181705D01*
X0136792Y0181659D01*
X0136823Y0181611D01*
X0136851Y0181560D01*
X0136875Y0181508D01*
X0136896Y0181455D01*
X0136913Y0181400D01*
X0136927Y0181344D01*
X0136936Y0181288D01*
X0136942Y0181230D01*
X0136944Y0181173D01*
X0136942Y0181116D01*
X0136936Y0181058D01*
X0136927Y0181002D01*
X0136913Y0180946D01*
X0136896Y0180891D01*
X0136875Y0180838D01*
X0136851Y0180786D01*
X0136823Y0180735D01*
X0136792Y0180687D01*
X0136758Y0180641D01*
X0136721Y0180597D01*
X0136681Y0180556D01*
X0136638Y0180518D01*
X0136592Y0180482D01*
X0136545Y0180450D01*
X0136495Y0180421D01*
X0136444Y0180396D01*
X0136391Y0180374D01*
X0136336Y0180355D01*
X0136322Y0180872D01*
X0136350Y0180896D01*
X0136376Y0180922D01*
X0136398Y0180951D01*
X0136418Y0180981D01*
X0136435Y0181014D01*
X0136449Y0181048D01*
X0136459Y0181083D01*
X0136466Y0181118D01*
X0136470Y0181155D01*
X0136470Y0181191D01*
X0136466Y0181228D01*
X0136459Y0181263D01*
X0136449Y0181298D01*
X0136435Y0181332D01*
X0136418Y0181365D01*
X0136398Y0181395D01*
X0136376Y0181424D01*
X0136350Y0181450D01*
X0136322Y0181474D01*
X0142130Y0181176D02*
X0142130Y0180426D01*
X0142880Y0179675D01*
X0142130Y0178925D01*
X0142130Y0178174D01*
X0142880Y0177423D01*
X0144382Y0177423D01*
X0145132Y0178174D01*
X0143631Y0179675D02*
X0142880Y0179675D01*
X0142130Y0181176D02*
X0142880Y0181927D01*
X0144382Y0181927D01*
X0145132Y0181176D01*
X0146734Y0181927D02*
X0148235Y0181927D01*
X0147484Y0181927D02*
X0147484Y0178174D01*
X0148235Y0177423D01*
X0148986Y0177423D01*
X0149736Y0178174D01*
X0151338Y0178174D02*
X0152088Y0177423D01*
X0153590Y0177423D01*
X0154340Y0178174D01*
X0153590Y0179675D02*
X0154340Y0180426D01*
X0154340Y0181176D01*
X0153590Y0181927D01*
X0152088Y0181927D01*
X0151338Y0181176D01*
X0152088Y0179675D02*
X0151338Y0178925D01*
X0151338Y0178174D01*
X0152088Y0179675D02*
X0153590Y0179675D01*
X0137339Y0156231D02*
X0137091Y0158969D01*
X0137091Y0158969D01*
X0137339Y0161707D01*
X0137340Y0161708D01*
X0137443Y0161696D01*
X0137547Y0161681D01*
X0137649Y0161662D01*
X0137751Y0161638D01*
X0137852Y0161611D01*
X0137951Y0161581D01*
X0138050Y0161546D01*
X0138147Y0161508D01*
X0138242Y0161466D01*
X0138336Y0161420D01*
X0138428Y0161371D01*
X0138519Y0161319D01*
X0138607Y0161263D01*
X0138693Y0161204D01*
X0138776Y0161141D01*
X0138857Y0161076D01*
X0138936Y0161007D01*
X0139012Y0160936D01*
X0139085Y0160861D01*
X0139156Y0160784D01*
X0139223Y0160705D01*
X0139287Y0160622D01*
X0139349Y0160538D01*
X0139406Y0160451D01*
X0139461Y0160362D01*
X0139512Y0160271D01*
X0139560Y0160178D01*
X0139604Y0160084D01*
X0139644Y0159988D01*
X0139681Y0159890D01*
X0139714Y0159791D01*
X0139744Y0159691D01*
X0139769Y0159590D01*
X0139791Y0159488D01*
X0139808Y0159385D01*
X0139822Y0159281D01*
X0139832Y0159178D01*
X0139838Y0159073D01*
X0139840Y0158969D01*
X0139838Y0158865D01*
X0139832Y0158760D01*
X0139822Y0158657D01*
X0139808Y0158553D01*
X0139791Y0158450D01*
X0139769Y0158348D01*
X0139744Y0158247D01*
X0139714Y0158147D01*
X0139681Y0158048D01*
X0139644Y0157950D01*
X0139604Y0157854D01*
X0139560Y0157760D01*
X0139512Y0157667D01*
X0139461Y0157576D01*
X0139406Y0157487D01*
X0139349Y0157400D01*
X0139287Y0157316D01*
X0139223Y0157233D01*
X0139156Y0157154D01*
X0139085Y0157077D01*
X0139012Y0157002D01*
X0138936Y0156931D01*
X0138857Y0156862D01*
X0138776Y0156797D01*
X0138693Y0156734D01*
X0138607Y0156675D01*
X0138519Y0156619D01*
X0138428Y0156567D01*
X0138336Y0156518D01*
X0138242Y0156472D01*
X0138147Y0156430D01*
X0138050Y0156392D01*
X0137951Y0156357D01*
X0137852Y0156327D01*
X0137751Y0156300D01*
X0137649Y0156276D01*
X0137547Y0156257D01*
X0137443Y0156242D01*
X0137340Y0156230D01*
X0137339Y0156707D01*
X0137434Y0156719D01*
X0137527Y0156735D01*
X0137620Y0156756D01*
X0137712Y0156780D01*
X0137803Y0156808D01*
X0137892Y0156839D01*
X0137981Y0156874D01*
X0138067Y0156913D01*
X0138152Y0156956D01*
X0138235Y0157002D01*
X0138316Y0157052D01*
X0138395Y0157104D01*
X0138472Y0157161D01*
X0138546Y0157220D01*
X0138618Y0157282D01*
X0138687Y0157347D01*
X0138753Y0157415D01*
X0138817Y0157486D01*
X0138877Y0157559D01*
X0138934Y0157635D01*
X0138988Y0157713D01*
X0139039Y0157794D01*
X0139086Y0157876D01*
X0139130Y0157960D01*
X0139171Y0158046D01*
X0139207Y0158134D01*
X0139240Y0158223D01*
X0139270Y0158313D01*
X0139295Y0158405D01*
X0139317Y0158497D01*
X0139334Y0158591D01*
X0139348Y0158685D01*
X0139358Y0158779D01*
X0139364Y0158874D01*
X0139366Y0158969D01*
X0139364Y0159064D01*
X0139358Y0159159D01*
X0139348Y0159253D01*
X0139334Y0159347D01*
X0139317Y0159441D01*
X0139295Y0159533D01*
X0139270Y0159625D01*
X0139240Y0159715D01*
X0139207Y0159804D01*
X0139171Y0159892D01*
X0139130Y0159978D01*
X0139086Y0160062D01*
X0139039Y0160144D01*
X0138988Y0160225D01*
X0138934Y0160303D01*
X0138877Y0160379D01*
X0138817Y0160452D01*
X0138753Y0160523D01*
X0138687Y0160591D01*
X0138618Y0160656D01*
X0138546Y0160718D01*
X0138472Y0160777D01*
X0138395Y0160834D01*
X0138316Y0160886D01*
X0138235Y0160936D01*
X0138152Y0160982D01*
X0138067Y0161025D01*
X0137981Y0161064D01*
X0137892Y0161099D01*
X0137803Y0161130D01*
X0137712Y0161158D01*
X0137620Y0161182D01*
X0137527Y0161203D01*
X0137434Y0161219D01*
X0137339Y0161231D01*
X0137339Y0160754D01*
X0137421Y0160740D01*
X0137503Y0160723D01*
X0137583Y0160702D01*
X0137663Y0160678D01*
X0137741Y0160649D01*
X0137818Y0160617D01*
X0137893Y0160582D01*
X0137967Y0160543D01*
X0138039Y0160501D01*
X0138109Y0160456D01*
X0138176Y0160407D01*
X0138241Y0160355D01*
X0138304Y0160301D01*
X0138364Y0160243D01*
X0138422Y0160183D01*
X0138476Y0160120D01*
X0138528Y0160055D01*
X0138577Y0159987D01*
X0138622Y0159918D01*
X0138664Y0159846D01*
X0138703Y0159772D01*
X0138738Y0159697D01*
X0138770Y0159620D01*
X0138799Y0159542D01*
X0138823Y0159462D01*
X0138844Y0159382D01*
X0138861Y0159300D01*
X0138875Y0159218D01*
X0138884Y0159135D01*
X0138890Y0159052D01*
X0138892Y0158969D01*
X0138890Y0158886D01*
X0138884Y0158803D01*
X0138875Y0158720D01*
X0138861Y0158638D01*
X0138844Y0158556D01*
X0138823Y0158476D01*
X0138799Y0158396D01*
X0138770Y0158318D01*
X0138738Y0158241D01*
X0138703Y0158166D01*
X0138664Y0158092D01*
X0138622Y0158020D01*
X0138577Y0157951D01*
X0138528Y0157883D01*
X0138476Y0157818D01*
X0138422Y0157755D01*
X0138364Y0157695D01*
X0138304Y0157637D01*
X0138241Y0157583D01*
X0138176Y0157531D01*
X0138109Y0157482D01*
X0138039Y0157437D01*
X0137967Y0157395D01*
X0137893Y0157356D01*
X0137818Y0157321D01*
X0137741Y0157289D01*
X0137663Y0157260D01*
X0137583Y0157236D01*
X0137503Y0157215D01*
X0137421Y0157198D01*
X0137339Y0157184D01*
X0137339Y0157664D01*
X0137409Y0157680D01*
X0137478Y0157699D01*
X0137546Y0157722D01*
X0137613Y0157748D01*
X0137679Y0157779D01*
X0137742Y0157812D01*
X0137804Y0157849D01*
X0137864Y0157890D01*
X0137921Y0157933D01*
X0137976Y0157980D01*
X0138028Y0158029D01*
X0138078Y0158081D01*
X0138125Y0158136D01*
X0138168Y0158194D01*
X0138209Y0158253D01*
X0138246Y0158315D01*
X0138279Y0158378D01*
X0138310Y0158444D01*
X0138336Y0158511D01*
X0138359Y0158579D01*
X0138379Y0158648D01*
X0138394Y0158719D01*
X0138406Y0158790D01*
X0138414Y0158861D01*
X0138418Y0158933D01*
X0138418Y0159005D01*
X0138414Y0159077D01*
X0138406Y0159148D01*
X0138394Y0159219D01*
X0138379Y0159290D01*
X0138359Y0159359D01*
X0138336Y0159427D01*
X0138310Y0159494D01*
X0138279Y0159560D01*
X0138246Y0159623D01*
X0138209Y0159685D01*
X0138168Y0159744D01*
X0138125Y0159802D01*
X0138078Y0159857D01*
X0138028Y0159909D01*
X0137976Y0159958D01*
X0137921Y0160005D01*
X0137864Y0160048D01*
X0137804Y0160089D01*
X0137742Y0160126D01*
X0137679Y0160159D01*
X0137613Y0160190D01*
X0137546Y0160216D01*
X0137478Y0160239D01*
X0137409Y0160258D01*
X0137339Y0160274D01*
X0137336Y0159787D01*
X0137391Y0159768D01*
X0137444Y0159746D01*
X0137495Y0159721D01*
X0137545Y0159692D01*
X0137592Y0159660D01*
X0137638Y0159624D01*
X0137681Y0159586D01*
X0137721Y0159545D01*
X0137758Y0159501D01*
X0137792Y0159455D01*
X0137823Y0159407D01*
X0137851Y0159356D01*
X0137875Y0159304D01*
X0137896Y0159251D01*
X0137913Y0159196D01*
X0137927Y0159140D01*
X0137936Y0159084D01*
X0137942Y0159026D01*
X0137944Y0158969D01*
X0137942Y0158912D01*
X0137936Y0158854D01*
X0137927Y0158798D01*
X0137913Y0158742D01*
X0137896Y0158687D01*
X0137875Y0158634D01*
X0137851Y0158582D01*
X0137823Y0158531D01*
X0137792Y0158483D01*
X0137758Y0158437D01*
X0137721Y0158393D01*
X0137681Y0158352D01*
X0137638Y0158314D01*
X0137592Y0158278D01*
X0137545Y0158246D01*
X0137495Y0158217D01*
X0137444Y0158192D01*
X0137391Y0158170D01*
X0137336Y0158151D01*
X0137322Y0158668D01*
X0137350Y0158692D01*
X0137376Y0158718D01*
X0137398Y0158747D01*
X0137418Y0158777D01*
X0137435Y0158810D01*
X0137449Y0158844D01*
X0137459Y0158879D01*
X0137466Y0158914D01*
X0137470Y0158951D01*
X0137470Y0158987D01*
X0137466Y0159024D01*
X0137459Y0159059D01*
X0137449Y0159094D01*
X0137435Y0159128D01*
X0137418Y0159161D01*
X0137398Y0159191D01*
X0137376Y0159220D01*
X0137350Y0159246D01*
X0137322Y0159270D01*
X0137382Y0151722D02*
X0135880Y0151722D01*
X0135130Y0150972D01*
X0135130Y0150221D01*
X0138132Y0147219D01*
X0135130Y0147219D01*
X0138132Y0150972D02*
X0137382Y0151722D01*
X0139734Y0151722D02*
X0141235Y0151722D01*
X0140484Y0151722D02*
X0140484Y0147969D01*
X0141235Y0147219D01*
X0141986Y0147219D01*
X0142736Y0147969D01*
X0144338Y0147969D02*
X0144338Y0148720D01*
X0145088Y0149470D01*
X0146590Y0149470D01*
X0147340Y0150221D01*
X0147340Y0150972D01*
X0146590Y0151722D01*
X0145088Y0151722D01*
X0144338Y0150972D01*
X0144338Y0147969D02*
X0145088Y0147219D01*
X0146590Y0147219D01*
X0147340Y0147969D01*
X0128841Y0161707D02*
X0129089Y0158969D01*
X0129089Y0158969D01*
X0128841Y0156231D01*
X0128840Y0156230D01*
X0128737Y0156242D01*
X0128633Y0156257D01*
X0128531Y0156276D01*
X0128429Y0156300D01*
X0128328Y0156327D01*
X0128229Y0156357D01*
X0128130Y0156392D01*
X0128033Y0156430D01*
X0127938Y0156472D01*
X0127844Y0156518D01*
X0127752Y0156567D01*
X0127661Y0156619D01*
X0127573Y0156675D01*
X0127487Y0156734D01*
X0127404Y0156797D01*
X0127323Y0156862D01*
X0127244Y0156931D01*
X0127168Y0157002D01*
X0127095Y0157077D01*
X0127024Y0157154D01*
X0126957Y0157233D01*
X0126893Y0157316D01*
X0126831Y0157400D01*
X0126774Y0157487D01*
X0126719Y0157576D01*
X0126668Y0157667D01*
X0126620Y0157760D01*
X0126576Y0157854D01*
X0126536Y0157950D01*
X0126499Y0158048D01*
X0126466Y0158147D01*
X0126436Y0158247D01*
X0126411Y0158348D01*
X0126389Y0158450D01*
X0126372Y0158553D01*
X0126358Y0158657D01*
X0126348Y0158760D01*
X0126342Y0158865D01*
X0126340Y0158969D01*
X0126342Y0159073D01*
X0126348Y0159178D01*
X0126358Y0159281D01*
X0126372Y0159385D01*
X0126389Y0159488D01*
X0126411Y0159590D01*
X0126436Y0159691D01*
X0126466Y0159791D01*
X0126499Y0159890D01*
X0126536Y0159988D01*
X0126576Y0160084D01*
X0126620Y0160178D01*
X0126668Y0160271D01*
X0126719Y0160362D01*
X0126774Y0160451D01*
X0126831Y0160538D01*
X0126893Y0160622D01*
X0126957Y0160705D01*
X0127024Y0160784D01*
X0127095Y0160861D01*
X0127168Y0160936D01*
X0127244Y0161007D01*
X0127323Y0161076D01*
X0127404Y0161141D01*
X0127487Y0161204D01*
X0127573Y0161263D01*
X0127661Y0161319D01*
X0127752Y0161371D01*
X0127844Y0161420D01*
X0127938Y0161466D01*
X0128033Y0161508D01*
X0128130Y0161546D01*
X0128229Y0161581D01*
X0128328Y0161611D01*
X0128429Y0161638D01*
X0128531Y0161662D01*
X0128633Y0161681D01*
X0128737Y0161696D01*
X0128840Y0161708D01*
X0128841Y0161231D01*
X0128746Y0161219D01*
X0128653Y0161203D01*
X0128560Y0161182D01*
X0128468Y0161158D01*
X0128377Y0161130D01*
X0128288Y0161099D01*
X0128199Y0161064D01*
X0128113Y0161025D01*
X0128028Y0160982D01*
X0127945Y0160936D01*
X0127864Y0160886D01*
X0127785Y0160834D01*
X0127708Y0160777D01*
X0127634Y0160718D01*
X0127562Y0160656D01*
X0127493Y0160591D01*
X0127427Y0160523D01*
X0127363Y0160452D01*
X0127303Y0160379D01*
X0127246Y0160303D01*
X0127192Y0160225D01*
X0127141Y0160144D01*
X0127094Y0160062D01*
X0127050Y0159978D01*
X0127009Y0159892D01*
X0126973Y0159804D01*
X0126940Y0159715D01*
X0126910Y0159625D01*
X0126885Y0159533D01*
X0126863Y0159441D01*
X0126846Y0159347D01*
X0126832Y0159253D01*
X0126822Y0159159D01*
X0126816Y0159064D01*
X0126814Y0158969D01*
X0126816Y0158874D01*
X0126822Y0158779D01*
X0126832Y0158685D01*
X0126846Y0158591D01*
X0126863Y0158497D01*
X0126885Y0158405D01*
X0126910Y0158313D01*
X0126940Y0158223D01*
X0126973Y0158134D01*
X0127009Y0158046D01*
X0127050Y0157960D01*
X0127094Y0157876D01*
X0127141Y0157794D01*
X0127192Y0157713D01*
X0127246Y0157635D01*
X0127303Y0157559D01*
X0127363Y0157486D01*
X0127427Y0157415D01*
X0127493Y0157347D01*
X0127562Y0157282D01*
X0127634Y0157220D01*
X0127708Y0157161D01*
X0127785Y0157104D01*
X0127864Y0157052D01*
X0127945Y0157002D01*
X0128028Y0156956D01*
X0128113Y0156913D01*
X0128199Y0156874D01*
X0128288Y0156839D01*
X0128377Y0156808D01*
X0128468Y0156780D01*
X0128560Y0156756D01*
X0128653Y0156735D01*
X0128746Y0156719D01*
X0128841Y0156707D01*
X0128841Y0157184D01*
X0128759Y0157198D01*
X0128677Y0157215D01*
X0128597Y0157236D01*
X0128517Y0157260D01*
X0128439Y0157289D01*
X0128362Y0157321D01*
X0128287Y0157356D01*
X0128213Y0157395D01*
X0128141Y0157437D01*
X0128071Y0157482D01*
X0128004Y0157531D01*
X0127939Y0157583D01*
X0127876Y0157637D01*
X0127816Y0157695D01*
X0127758Y0157755D01*
X0127704Y0157818D01*
X0127652Y0157883D01*
X0127603Y0157951D01*
X0127558Y0158020D01*
X0127516Y0158092D01*
X0127477Y0158166D01*
X0127442Y0158241D01*
X0127410Y0158318D01*
X0127381Y0158396D01*
X0127357Y0158476D01*
X0127336Y0158556D01*
X0127319Y0158638D01*
X0127305Y0158720D01*
X0127296Y0158803D01*
X0127290Y0158886D01*
X0127288Y0158969D01*
X0127290Y0159052D01*
X0127296Y0159135D01*
X0127305Y0159218D01*
X0127319Y0159300D01*
X0127336Y0159382D01*
X0127357Y0159462D01*
X0127381Y0159542D01*
X0127410Y0159620D01*
X0127442Y0159697D01*
X0127477Y0159772D01*
X0127516Y0159846D01*
X0127558Y0159918D01*
X0127603Y0159987D01*
X0127652Y0160055D01*
X0127704Y0160120D01*
X0127758Y0160183D01*
X0127816Y0160243D01*
X0127876Y0160301D01*
X0127939Y0160355D01*
X0128004Y0160407D01*
X0128071Y0160456D01*
X0128141Y0160501D01*
X0128213Y0160543D01*
X0128287Y0160582D01*
X0128362Y0160617D01*
X0128439Y0160649D01*
X0128517Y0160678D01*
X0128597Y0160702D01*
X0128677Y0160723D01*
X0128759Y0160740D01*
X0128841Y0160754D01*
X0128841Y0160274D01*
X0128771Y0160258D01*
X0128702Y0160239D01*
X0128634Y0160216D01*
X0128567Y0160190D01*
X0128501Y0160159D01*
X0128438Y0160126D01*
X0128376Y0160089D01*
X0128316Y0160048D01*
X0128259Y0160005D01*
X0128204Y0159958D01*
X0128152Y0159909D01*
X0128102Y0159857D01*
X0128055Y0159802D01*
X0128012Y0159744D01*
X0127971Y0159685D01*
X0127934Y0159623D01*
X0127901Y0159560D01*
X0127870Y0159494D01*
X0127844Y0159427D01*
X0127821Y0159359D01*
X0127801Y0159290D01*
X0127786Y0159219D01*
X0127774Y0159148D01*
X0127766Y0159077D01*
X0127762Y0159005D01*
X0127762Y0158933D01*
X0127766Y0158861D01*
X0127774Y0158790D01*
X0127786Y0158719D01*
X0127801Y0158648D01*
X0127821Y0158579D01*
X0127844Y0158511D01*
X0127870Y0158444D01*
X0127901Y0158378D01*
X0127934Y0158315D01*
X0127971Y0158253D01*
X0128012Y0158194D01*
X0128055Y0158136D01*
X0128102Y0158081D01*
X0128152Y0158029D01*
X0128204Y0157980D01*
X0128259Y0157933D01*
X0128316Y0157890D01*
X0128376Y0157849D01*
X0128438Y0157812D01*
X0128501Y0157779D01*
X0128567Y0157748D01*
X0128634Y0157722D01*
X0128702Y0157699D01*
X0128771Y0157680D01*
X0128841Y0157664D01*
X0128844Y0158151D01*
X0128789Y0158170D01*
X0128736Y0158192D01*
X0128685Y0158217D01*
X0128635Y0158246D01*
X0128588Y0158278D01*
X0128542Y0158314D01*
X0128499Y0158352D01*
X0128459Y0158393D01*
X0128422Y0158437D01*
X0128388Y0158483D01*
X0128357Y0158531D01*
X0128329Y0158582D01*
X0128305Y0158634D01*
X0128284Y0158687D01*
X0128267Y0158742D01*
X0128253Y0158798D01*
X0128244Y0158854D01*
X0128238Y0158912D01*
X0128236Y0158969D01*
X0128238Y0159026D01*
X0128244Y0159084D01*
X0128253Y0159140D01*
X0128267Y0159196D01*
X0128284Y0159251D01*
X0128305Y0159304D01*
X0128329Y0159356D01*
X0128357Y0159407D01*
X0128388Y0159455D01*
X0128422Y0159501D01*
X0128459Y0159545D01*
X0128499Y0159586D01*
X0128542Y0159624D01*
X0128588Y0159660D01*
X0128635Y0159692D01*
X0128685Y0159721D01*
X0128736Y0159746D01*
X0128789Y0159768D01*
X0128844Y0159787D01*
X0128858Y0159270D01*
X0128830Y0159246D01*
X0128804Y0159220D01*
X0128782Y0159191D01*
X0128762Y0159161D01*
X0128745Y0159128D01*
X0128731Y0159094D01*
X0128721Y0159059D01*
X0128714Y0159024D01*
X0128710Y0158987D01*
X0128710Y0158951D01*
X0128714Y0158914D01*
X0128721Y0158879D01*
X0128731Y0158844D01*
X0128745Y0158810D01*
X0128762Y0158777D01*
X0128782Y0158747D01*
X0128804Y0158718D01*
X0128830Y0158692D01*
X0128858Y0158668D01*
X0115358Y0197000D02*
X0115360Y0197141D01*
X0115366Y0197282D01*
X0115376Y0197422D01*
X0115390Y0197562D01*
X0115408Y0197702D01*
X0115429Y0197841D01*
X0115455Y0197980D01*
X0115484Y0198118D01*
X0115518Y0198254D01*
X0115555Y0198390D01*
X0115596Y0198525D01*
X0115641Y0198659D01*
X0115690Y0198791D01*
X0115742Y0198922D01*
X0115798Y0199051D01*
X0115858Y0199178D01*
X0115921Y0199304D01*
X0115987Y0199428D01*
X0116058Y0199551D01*
X0116131Y0199671D01*
X0116208Y0199789D01*
X0116288Y0199905D01*
X0116372Y0200018D01*
X0116458Y0200129D01*
X0116548Y0200238D01*
X0116641Y0200344D01*
X0116736Y0200447D01*
X0116835Y0200548D01*
X0116936Y0200646D01*
X0117040Y0200741D01*
X0117147Y0200833D01*
X0117256Y0200922D01*
X0117368Y0201007D01*
X0117482Y0201090D01*
X0117598Y0201170D01*
X0117717Y0201246D01*
X0117838Y0201318D01*
X0117960Y0201388D01*
X0118085Y0201453D01*
X0118211Y0201516D01*
X0118339Y0201574D01*
X0118469Y0201629D01*
X0118600Y0201681D01*
X0118733Y0201728D01*
X0118867Y0201772D01*
X0119002Y0201813D01*
X0119138Y0201849D01*
X0119275Y0201881D01*
X0119413Y0201910D01*
X0119551Y0201935D01*
X0119691Y0201955D01*
X0119831Y0201972D01*
X0119971Y0201985D01*
X0120112Y0201994D01*
X0120252Y0201999D01*
X0120393Y0202000D01*
X0120534Y0201997D01*
X0120675Y0201990D01*
X0120815Y0201979D01*
X0120955Y0201964D01*
X0121095Y0201945D01*
X0121234Y0201923D01*
X0121372Y0201896D01*
X0121510Y0201866D01*
X0121646Y0201831D01*
X0121782Y0201793D01*
X0121916Y0201751D01*
X0122050Y0201705D01*
X0122182Y0201656D01*
X0122312Y0201602D01*
X0122441Y0201545D01*
X0122568Y0201485D01*
X0122694Y0201421D01*
X0122817Y0201353D01*
X0122939Y0201282D01*
X0123059Y0201208D01*
X0123176Y0201130D01*
X0123291Y0201049D01*
X0123404Y0200965D01*
X0123515Y0200878D01*
X0123623Y0200787D01*
X0123728Y0200694D01*
X0123831Y0200597D01*
X0123931Y0200498D01*
X0124028Y0200396D01*
X0124122Y0200291D01*
X0124213Y0200184D01*
X0124301Y0200074D01*
X0124386Y0199962D01*
X0124468Y0199847D01*
X0124547Y0199730D01*
X0124622Y0199611D01*
X0124694Y0199490D01*
X0124762Y0199367D01*
X0124827Y0199242D01*
X0124889Y0199115D01*
X0124946Y0198986D01*
X0125001Y0198856D01*
X0125051Y0198725D01*
X0125098Y0198592D01*
X0125141Y0198458D01*
X0125180Y0198322D01*
X0125215Y0198186D01*
X0125247Y0198049D01*
X0125274Y0197911D01*
X0125298Y0197772D01*
X0125318Y0197632D01*
X0125334Y0197492D01*
X0125346Y0197352D01*
X0125354Y0197211D01*
X0125358Y0197070D01*
X0125358Y0196930D01*
X0125354Y0196789D01*
X0125346Y0196648D01*
X0125334Y0196508D01*
X0125318Y0196368D01*
X0125298Y0196228D01*
X0125274Y0196089D01*
X0125247Y0195951D01*
X0125215Y0195814D01*
X0125180Y0195678D01*
X0125141Y0195542D01*
X0125098Y0195408D01*
X0125051Y0195275D01*
X0125001Y0195144D01*
X0124946Y0195014D01*
X0124889Y0194885D01*
X0124827Y0194758D01*
X0124762Y0194633D01*
X0124694Y0194510D01*
X0124622Y0194389D01*
X0124547Y0194270D01*
X0124468Y0194153D01*
X0124386Y0194038D01*
X0124301Y0193926D01*
X0124213Y0193816D01*
X0124122Y0193709D01*
X0124028Y0193604D01*
X0123931Y0193502D01*
X0123831Y0193403D01*
X0123728Y0193306D01*
X0123623Y0193213D01*
X0123515Y0193122D01*
X0123404Y0193035D01*
X0123291Y0192951D01*
X0123176Y0192870D01*
X0123059Y0192792D01*
X0122939Y0192718D01*
X0122817Y0192647D01*
X0122694Y0192579D01*
X0122568Y0192515D01*
X0122441Y0192455D01*
X0122312Y0192398D01*
X0122182Y0192344D01*
X0122050Y0192295D01*
X0121916Y0192249D01*
X0121782Y0192207D01*
X0121646Y0192169D01*
X0121510Y0192134D01*
X0121372Y0192104D01*
X0121234Y0192077D01*
X0121095Y0192055D01*
X0120955Y0192036D01*
X0120815Y0192021D01*
X0120675Y0192010D01*
X0120534Y0192003D01*
X0120393Y0192000D01*
X0120252Y0192001D01*
X0120112Y0192006D01*
X0119971Y0192015D01*
X0119831Y0192028D01*
X0119691Y0192045D01*
X0119551Y0192065D01*
X0119413Y0192090D01*
X0119275Y0192119D01*
X0119138Y0192151D01*
X0119002Y0192187D01*
X0118867Y0192228D01*
X0118733Y0192272D01*
X0118600Y0192319D01*
X0118469Y0192371D01*
X0118339Y0192426D01*
X0118211Y0192484D01*
X0118085Y0192547D01*
X0117960Y0192612D01*
X0117838Y0192682D01*
X0117717Y0192754D01*
X0117598Y0192830D01*
X0117482Y0192910D01*
X0117368Y0192993D01*
X0117256Y0193078D01*
X0117147Y0193167D01*
X0117040Y0193259D01*
X0116936Y0193354D01*
X0116835Y0193452D01*
X0116736Y0193553D01*
X0116641Y0193656D01*
X0116548Y0193762D01*
X0116458Y0193871D01*
X0116372Y0193982D01*
X0116288Y0194095D01*
X0116208Y0194211D01*
X0116131Y0194329D01*
X0116058Y0194449D01*
X0115987Y0194572D01*
X0115921Y0194696D01*
X0115858Y0194822D01*
X0115798Y0194949D01*
X0115742Y0195078D01*
X0115690Y0195209D01*
X0115641Y0195341D01*
X0115596Y0195475D01*
X0115555Y0195610D01*
X0115518Y0195746D01*
X0115484Y0195882D01*
X0115455Y0196020D01*
X0115429Y0196159D01*
X0115408Y0196298D01*
X0115390Y0196438D01*
X0115376Y0196578D01*
X0115366Y0196718D01*
X0115360Y0196859D01*
X0115358Y0197000D01*
X0116358Y0211500D02*
X0116358Y0215000D01*
X0110358Y0215000D01*
X0110358Y0211500D01*
X0102858Y0211500D01*
X0102858Y0252500D01*
X0110358Y0252500D01*
X0110358Y0249000D01*
X0116358Y0249000D01*
X0116358Y0252500D01*
X0165358Y0252500D01*
X0165358Y0211500D01*
X0116358Y0211500D01*
X0125708Y0225810D02*
X0127976Y0225810D01*
X0129111Y0226944D01*
X0127976Y0228078D01*
X0125708Y0228078D01*
X0125708Y0229401D02*
X0125708Y0231669D01*
X0125708Y0230535D02*
X0129111Y0230535D01*
X0127976Y0229401D01*
X0127409Y0228078D02*
X0127409Y0225810D01*
X0126275Y0232992D02*
X0125708Y0232992D01*
X0126275Y0232992D02*
X0128544Y0235260D01*
X0129111Y0235260D01*
X0129111Y0232992D01*
X0126275Y0237150D02*
X0125708Y0237150D01*
X0125708Y0237717D01*
X0126275Y0237717D01*
X0126275Y0237150D01*
X0125708Y0237717D02*
X0124574Y0236583D01*
X0126275Y0238977D02*
X0125708Y0239544D01*
X0125708Y0240678D01*
X0126275Y0241245D01*
X0127409Y0241245D01*
X0127976Y0240678D01*
X0127976Y0240111D01*
X0127409Y0238977D01*
X0129111Y0238977D01*
X0129111Y0241245D01*
X0127976Y0242568D02*
X0127976Y0243135D01*
X0127409Y0243702D01*
X0127976Y0244269D01*
X0127409Y0244836D01*
X0125708Y0244836D01*
X0125708Y0243702D02*
X0127409Y0243702D01*
X0127976Y0242568D02*
X0125708Y0242568D01*
X0125708Y0246159D02*
X0127976Y0246159D01*
X0127976Y0246726D01*
X0127409Y0247293D01*
X0127976Y0247860D01*
X0127409Y0248428D01*
X0125708Y0248428D01*
X0125708Y0247293D02*
X0127409Y0247293D01*
X0109258Y0232000D02*
X0109260Y0232174D01*
X0109267Y0232348D01*
X0109277Y0232522D01*
X0109292Y0232696D01*
X0109311Y0232869D01*
X0109335Y0233042D01*
X0109363Y0233214D01*
X0109394Y0233385D01*
X0109431Y0233556D01*
X0109471Y0233725D01*
X0109515Y0233894D01*
X0109564Y0234061D01*
X0109616Y0234227D01*
X0109673Y0234392D01*
X0109734Y0234555D01*
X0109798Y0234717D01*
X0109867Y0234877D01*
X0109940Y0235036D01*
X0110016Y0235192D01*
X0110096Y0235347D01*
X0110180Y0235500D01*
X0110268Y0235650D01*
X0110360Y0235798D01*
X0110455Y0235945D01*
X0110553Y0236088D01*
X0110655Y0236229D01*
X0110761Y0236368D01*
X0110870Y0236504D01*
X0110982Y0236638D01*
X0111097Y0236768D01*
X0111216Y0236896D01*
X0111338Y0237020D01*
X0111462Y0237142D01*
X0111590Y0237261D01*
X0111720Y0237376D01*
X0111854Y0237488D01*
X0111990Y0237597D01*
X0112129Y0237703D01*
X0112270Y0237805D01*
X0112413Y0237903D01*
X0112560Y0237998D01*
X0112708Y0238090D01*
X0112858Y0238178D01*
X0113011Y0238262D01*
X0113166Y0238342D01*
X0113322Y0238418D01*
X0113481Y0238491D01*
X0113641Y0238560D01*
X0113803Y0238624D01*
X0113966Y0238685D01*
X0114131Y0238742D01*
X0114297Y0238794D01*
X0114464Y0238843D01*
X0114633Y0238887D01*
X0114802Y0238927D01*
X0114973Y0238964D01*
X0115144Y0238995D01*
X0115316Y0239023D01*
X0115489Y0239047D01*
X0115662Y0239066D01*
X0115836Y0239081D01*
X0116010Y0239091D01*
X0116184Y0239098D01*
X0116358Y0239100D01*
X0116532Y0239098D01*
X0116706Y0239091D01*
X0116880Y0239081D01*
X0117054Y0239066D01*
X0117227Y0239047D01*
X0117400Y0239023D01*
X0117572Y0238995D01*
X0117743Y0238964D01*
X0117914Y0238927D01*
X0118083Y0238887D01*
X0118252Y0238843D01*
X0118419Y0238794D01*
X0118585Y0238742D01*
X0118750Y0238685D01*
X0118913Y0238624D01*
X0119075Y0238560D01*
X0119235Y0238491D01*
X0119394Y0238418D01*
X0119550Y0238342D01*
X0119705Y0238262D01*
X0119858Y0238178D01*
X0120008Y0238090D01*
X0120156Y0237998D01*
X0120303Y0237903D01*
X0120446Y0237805D01*
X0120587Y0237703D01*
X0120726Y0237597D01*
X0120862Y0237488D01*
X0120996Y0237376D01*
X0121126Y0237261D01*
X0121254Y0237142D01*
X0121378Y0237020D01*
X0121500Y0236896D01*
X0121619Y0236768D01*
X0121734Y0236638D01*
X0121846Y0236504D01*
X0121955Y0236368D01*
X0122061Y0236229D01*
X0122163Y0236088D01*
X0122261Y0235945D01*
X0122356Y0235798D01*
X0122448Y0235650D01*
X0122536Y0235500D01*
X0122620Y0235347D01*
X0122700Y0235192D01*
X0122776Y0235036D01*
X0122849Y0234877D01*
X0122918Y0234717D01*
X0122982Y0234555D01*
X0123043Y0234392D01*
X0123100Y0234227D01*
X0123152Y0234061D01*
X0123201Y0233894D01*
X0123245Y0233725D01*
X0123285Y0233556D01*
X0123322Y0233385D01*
X0123353Y0233214D01*
X0123381Y0233042D01*
X0123405Y0232869D01*
X0123424Y0232696D01*
X0123439Y0232522D01*
X0123449Y0232348D01*
X0123456Y0232174D01*
X0123458Y0232000D01*
X0123456Y0231826D01*
X0123449Y0231652D01*
X0123439Y0231478D01*
X0123424Y0231304D01*
X0123405Y0231131D01*
X0123381Y0230958D01*
X0123353Y0230786D01*
X0123322Y0230615D01*
X0123285Y0230444D01*
X0123245Y0230275D01*
X0123201Y0230106D01*
X0123152Y0229939D01*
X0123100Y0229773D01*
X0123043Y0229608D01*
X0122982Y0229445D01*
X0122918Y0229283D01*
X0122849Y0229123D01*
X0122776Y0228964D01*
X0122700Y0228808D01*
X0122620Y0228653D01*
X0122536Y0228500D01*
X0122448Y0228350D01*
X0122356Y0228202D01*
X0122261Y0228055D01*
X0122163Y0227912D01*
X0122061Y0227771D01*
X0121955Y0227632D01*
X0121846Y0227496D01*
X0121734Y0227362D01*
X0121619Y0227232D01*
X0121500Y0227104D01*
X0121378Y0226980D01*
X0121254Y0226858D01*
X0121126Y0226739D01*
X0120996Y0226624D01*
X0120862Y0226512D01*
X0120726Y0226403D01*
X0120587Y0226297D01*
X0120446Y0226195D01*
X0120303Y0226097D01*
X0120156Y0226002D01*
X0120008Y0225910D01*
X0119858Y0225822D01*
X0119705Y0225738D01*
X0119550Y0225658D01*
X0119394Y0225582D01*
X0119235Y0225509D01*
X0119075Y0225440D01*
X0118913Y0225376D01*
X0118750Y0225315D01*
X0118585Y0225258D01*
X0118419Y0225206D01*
X0118252Y0225157D01*
X0118083Y0225113D01*
X0117914Y0225073D01*
X0117743Y0225036D01*
X0117572Y0225005D01*
X0117400Y0224977D01*
X0117227Y0224953D01*
X0117054Y0224934D01*
X0116880Y0224919D01*
X0116706Y0224909D01*
X0116532Y0224902D01*
X0116358Y0224900D01*
X0116184Y0224902D01*
X0116010Y0224909D01*
X0115836Y0224919D01*
X0115662Y0224934D01*
X0115489Y0224953D01*
X0115316Y0224977D01*
X0115144Y0225005D01*
X0114973Y0225036D01*
X0114802Y0225073D01*
X0114633Y0225113D01*
X0114464Y0225157D01*
X0114297Y0225206D01*
X0114131Y0225258D01*
X0113966Y0225315D01*
X0113803Y0225376D01*
X0113641Y0225440D01*
X0113481Y0225509D01*
X0113322Y0225582D01*
X0113166Y0225658D01*
X0113011Y0225738D01*
X0112858Y0225822D01*
X0112708Y0225910D01*
X0112560Y0226002D01*
X0112413Y0226097D01*
X0112270Y0226195D01*
X0112129Y0226297D01*
X0111990Y0226403D01*
X0111854Y0226512D01*
X0111720Y0226624D01*
X0111590Y0226739D01*
X0111462Y0226858D01*
X0111338Y0226980D01*
X0111216Y0227104D01*
X0111097Y0227232D01*
X0110982Y0227362D01*
X0110870Y0227496D01*
X0110761Y0227632D01*
X0110655Y0227771D01*
X0110553Y0227912D01*
X0110455Y0228055D01*
X0110360Y0228202D01*
X0110268Y0228350D01*
X0110180Y0228500D01*
X0110096Y0228653D01*
X0110016Y0228808D01*
X0109940Y0228964D01*
X0109867Y0229123D01*
X0109798Y0229283D01*
X0109734Y0229445D01*
X0109673Y0229608D01*
X0109616Y0229773D01*
X0109564Y0229939D01*
X0109515Y0230106D01*
X0109471Y0230275D01*
X0109431Y0230444D01*
X0109394Y0230615D01*
X0109363Y0230786D01*
X0109335Y0230958D01*
X0109311Y0231131D01*
X0109292Y0231304D01*
X0109277Y0231478D01*
X0109267Y0231652D01*
X0109260Y0231826D01*
X0109258Y0232000D01*
X0155608Y0233149D02*
X0155608Y0230146D01*
X0158610Y0233149D01*
X0159361Y0233149D01*
X0160112Y0232398D01*
X0160112Y0230897D01*
X0159361Y0230146D01*
X0159361Y0223149D02*
X0158610Y0223149D01*
X0157860Y0222398D01*
X0157109Y0223149D01*
X0156359Y0223149D01*
X0155608Y0222398D01*
X0155608Y0220897D01*
X0156359Y0220146D01*
X0157860Y0221647D02*
X0157860Y0222398D01*
X0159361Y0223149D02*
X0160112Y0222398D01*
X0160112Y0220897D01*
X0159361Y0220146D01*
X0166487Y0216675D02*
X0168739Y0214423D01*
X0165736Y0214423D01*
X0166487Y0212171D02*
X0166487Y0216675D01*
X0170340Y0216675D02*
X0171841Y0216675D01*
X0171091Y0216675D02*
X0171091Y0212922D01*
X0171841Y0212171D01*
X0172592Y0212171D01*
X0173343Y0212922D01*
X0174944Y0212922D02*
X0175695Y0212171D01*
X0177196Y0212171D01*
X0177946Y0212922D01*
X0177196Y0214423D02*
X0175695Y0214423D01*
X0174944Y0213673D01*
X0174944Y0212922D01*
X0177196Y0214423D02*
X0177946Y0215174D01*
X0177946Y0215924D01*
X0177196Y0216675D01*
X0175695Y0216675D01*
X0174944Y0215924D01*
X0188017Y0209910D02*
X0185279Y0209662D01*
X0185279Y0209662D01*
X0182541Y0209910D01*
X0182540Y0209911D01*
X0182552Y0210014D01*
X0182567Y0210118D01*
X0182586Y0210220D01*
X0182610Y0210322D01*
X0182637Y0210423D01*
X0182667Y0210522D01*
X0182702Y0210621D01*
X0182740Y0210718D01*
X0182782Y0210813D01*
X0182828Y0210907D01*
X0182877Y0210999D01*
X0182929Y0211090D01*
X0182985Y0211178D01*
X0183044Y0211264D01*
X0183107Y0211347D01*
X0183172Y0211428D01*
X0183241Y0211507D01*
X0183312Y0211583D01*
X0183387Y0211656D01*
X0183464Y0211727D01*
X0183543Y0211794D01*
X0183626Y0211858D01*
X0183710Y0211920D01*
X0183797Y0211977D01*
X0183886Y0212032D01*
X0183977Y0212083D01*
X0184070Y0212131D01*
X0184164Y0212175D01*
X0184260Y0212215D01*
X0184358Y0212252D01*
X0184457Y0212285D01*
X0184557Y0212315D01*
X0184658Y0212340D01*
X0184760Y0212362D01*
X0184863Y0212379D01*
X0184967Y0212393D01*
X0185070Y0212403D01*
X0185175Y0212409D01*
X0185279Y0212411D01*
X0185383Y0212409D01*
X0185488Y0212403D01*
X0185591Y0212393D01*
X0185695Y0212379D01*
X0185798Y0212362D01*
X0185900Y0212340D01*
X0186001Y0212315D01*
X0186101Y0212285D01*
X0186200Y0212252D01*
X0186298Y0212215D01*
X0186394Y0212175D01*
X0186488Y0212131D01*
X0186581Y0212083D01*
X0186672Y0212032D01*
X0186761Y0211977D01*
X0186848Y0211920D01*
X0186932Y0211858D01*
X0187015Y0211794D01*
X0187094Y0211727D01*
X0187171Y0211656D01*
X0187246Y0211583D01*
X0187317Y0211507D01*
X0187386Y0211428D01*
X0187451Y0211347D01*
X0187514Y0211264D01*
X0187573Y0211178D01*
X0187629Y0211090D01*
X0187681Y0210999D01*
X0187730Y0210907D01*
X0187776Y0210813D01*
X0187818Y0210718D01*
X0187856Y0210621D01*
X0187891Y0210522D01*
X0187921Y0210423D01*
X0187948Y0210322D01*
X0187972Y0210220D01*
X0187991Y0210118D01*
X0188006Y0210014D01*
X0188018Y0209911D01*
X0187541Y0209910D01*
X0187529Y0210005D01*
X0187513Y0210098D01*
X0187492Y0210191D01*
X0187468Y0210283D01*
X0187440Y0210374D01*
X0187409Y0210463D01*
X0187374Y0210552D01*
X0187335Y0210638D01*
X0187292Y0210723D01*
X0187246Y0210806D01*
X0187196Y0210887D01*
X0187144Y0210966D01*
X0187087Y0211043D01*
X0187028Y0211117D01*
X0186966Y0211189D01*
X0186901Y0211258D01*
X0186833Y0211324D01*
X0186762Y0211388D01*
X0186689Y0211448D01*
X0186613Y0211505D01*
X0186535Y0211559D01*
X0186454Y0211610D01*
X0186372Y0211657D01*
X0186288Y0211701D01*
X0186202Y0211742D01*
X0186114Y0211778D01*
X0186025Y0211811D01*
X0185935Y0211841D01*
X0185843Y0211866D01*
X0185751Y0211888D01*
X0185657Y0211905D01*
X0185563Y0211919D01*
X0185469Y0211929D01*
X0185374Y0211935D01*
X0185279Y0211937D01*
X0185184Y0211935D01*
X0185089Y0211929D01*
X0184995Y0211919D01*
X0184901Y0211905D01*
X0184807Y0211888D01*
X0184715Y0211866D01*
X0184623Y0211841D01*
X0184533Y0211811D01*
X0184444Y0211778D01*
X0184356Y0211742D01*
X0184270Y0211701D01*
X0184186Y0211657D01*
X0184104Y0211610D01*
X0184023Y0211559D01*
X0183945Y0211505D01*
X0183869Y0211448D01*
X0183796Y0211388D01*
X0183725Y0211324D01*
X0183657Y0211258D01*
X0183592Y0211189D01*
X0183530Y0211117D01*
X0183471Y0211043D01*
X0183414Y0210966D01*
X0183362Y0210887D01*
X0183312Y0210806D01*
X0183266Y0210723D01*
X0183223Y0210638D01*
X0183184Y0210552D01*
X0183149Y0210463D01*
X0183118Y0210374D01*
X0183090Y0210283D01*
X0183066Y0210191D01*
X0183045Y0210098D01*
X0183029Y0210005D01*
X0183017Y0209910D01*
X0183494Y0209910D01*
X0183508Y0209992D01*
X0183525Y0210074D01*
X0183546Y0210154D01*
X0183570Y0210234D01*
X0183599Y0210312D01*
X0183631Y0210389D01*
X0183666Y0210464D01*
X0183705Y0210538D01*
X0183747Y0210610D01*
X0183792Y0210680D01*
X0183841Y0210747D01*
X0183893Y0210812D01*
X0183947Y0210875D01*
X0184005Y0210935D01*
X0184065Y0210993D01*
X0184128Y0211047D01*
X0184193Y0211099D01*
X0184261Y0211148D01*
X0184330Y0211193D01*
X0184402Y0211235D01*
X0184476Y0211274D01*
X0184551Y0211309D01*
X0184628Y0211341D01*
X0184706Y0211370D01*
X0184786Y0211394D01*
X0184866Y0211415D01*
X0184948Y0211432D01*
X0185030Y0211446D01*
X0185113Y0211455D01*
X0185196Y0211461D01*
X0185279Y0211463D01*
X0185362Y0211461D01*
X0185445Y0211455D01*
X0185528Y0211446D01*
X0185610Y0211432D01*
X0185692Y0211415D01*
X0185772Y0211394D01*
X0185852Y0211370D01*
X0185930Y0211341D01*
X0186007Y0211309D01*
X0186082Y0211274D01*
X0186156Y0211235D01*
X0186228Y0211193D01*
X0186297Y0211148D01*
X0186365Y0211099D01*
X0186430Y0211047D01*
X0186493Y0210993D01*
X0186553Y0210935D01*
X0186611Y0210875D01*
X0186665Y0210812D01*
X0186717Y0210747D01*
X0186766Y0210680D01*
X0186811Y0210610D01*
X0186853Y0210538D01*
X0186892Y0210464D01*
X0186927Y0210389D01*
X0186959Y0210312D01*
X0186988Y0210234D01*
X0187012Y0210154D01*
X0187033Y0210074D01*
X0187050Y0209992D01*
X0187064Y0209910D01*
X0186584Y0209910D01*
X0186568Y0209980D01*
X0186549Y0210049D01*
X0186526Y0210117D01*
X0186500Y0210184D01*
X0186469Y0210250D01*
X0186436Y0210313D01*
X0186399Y0210375D01*
X0186358Y0210435D01*
X0186315Y0210492D01*
X0186268Y0210547D01*
X0186219Y0210599D01*
X0186167Y0210649D01*
X0186112Y0210696D01*
X0186054Y0210739D01*
X0185995Y0210780D01*
X0185933Y0210817D01*
X0185870Y0210850D01*
X0185804Y0210881D01*
X0185737Y0210907D01*
X0185669Y0210930D01*
X0185600Y0210950D01*
X0185529Y0210965D01*
X0185458Y0210977D01*
X0185387Y0210985D01*
X0185315Y0210989D01*
X0185243Y0210989D01*
X0185171Y0210985D01*
X0185100Y0210977D01*
X0185029Y0210965D01*
X0184958Y0210950D01*
X0184889Y0210930D01*
X0184821Y0210907D01*
X0184754Y0210881D01*
X0184688Y0210850D01*
X0184625Y0210817D01*
X0184563Y0210780D01*
X0184504Y0210739D01*
X0184446Y0210696D01*
X0184391Y0210649D01*
X0184339Y0210599D01*
X0184290Y0210547D01*
X0184243Y0210492D01*
X0184200Y0210435D01*
X0184159Y0210375D01*
X0184122Y0210313D01*
X0184089Y0210250D01*
X0184058Y0210184D01*
X0184032Y0210117D01*
X0184009Y0210049D01*
X0183990Y0209980D01*
X0183974Y0209910D01*
X0184461Y0209907D01*
X0184480Y0209962D01*
X0184502Y0210015D01*
X0184527Y0210066D01*
X0184556Y0210116D01*
X0184588Y0210163D01*
X0184624Y0210209D01*
X0184662Y0210252D01*
X0184703Y0210292D01*
X0184747Y0210329D01*
X0184793Y0210363D01*
X0184841Y0210394D01*
X0184892Y0210422D01*
X0184944Y0210446D01*
X0184997Y0210467D01*
X0185052Y0210484D01*
X0185108Y0210498D01*
X0185164Y0210507D01*
X0185222Y0210513D01*
X0185279Y0210515D01*
X0185336Y0210513D01*
X0185394Y0210507D01*
X0185450Y0210498D01*
X0185506Y0210484D01*
X0185561Y0210467D01*
X0185614Y0210446D01*
X0185666Y0210422D01*
X0185717Y0210394D01*
X0185765Y0210363D01*
X0185811Y0210329D01*
X0185855Y0210292D01*
X0185896Y0210252D01*
X0185934Y0210209D01*
X0185970Y0210163D01*
X0186002Y0210116D01*
X0186031Y0210066D01*
X0186056Y0210015D01*
X0186078Y0209962D01*
X0186097Y0209907D01*
X0185580Y0209893D01*
X0185556Y0209921D01*
X0185530Y0209947D01*
X0185501Y0209969D01*
X0185471Y0209989D01*
X0185438Y0210006D01*
X0185404Y0210020D01*
X0185369Y0210030D01*
X0185334Y0210037D01*
X0185297Y0210041D01*
X0185261Y0210041D01*
X0185224Y0210037D01*
X0185189Y0210030D01*
X0185154Y0210020D01*
X0185120Y0210006D01*
X0185087Y0209989D01*
X0185057Y0209969D01*
X0185028Y0209947D01*
X0185002Y0209921D01*
X0184978Y0209893D01*
X0182541Y0201412D02*
X0185279Y0201660D01*
X0185279Y0201660D01*
X0188017Y0201412D01*
X0188018Y0201411D01*
X0188006Y0201308D01*
X0187991Y0201204D01*
X0187972Y0201102D01*
X0187948Y0201000D01*
X0187921Y0200899D01*
X0187891Y0200800D01*
X0187856Y0200701D01*
X0187818Y0200604D01*
X0187776Y0200509D01*
X0187730Y0200415D01*
X0187681Y0200323D01*
X0187629Y0200232D01*
X0187573Y0200144D01*
X0187514Y0200058D01*
X0187451Y0199975D01*
X0187386Y0199894D01*
X0187317Y0199815D01*
X0187246Y0199739D01*
X0187171Y0199666D01*
X0187094Y0199595D01*
X0187015Y0199528D01*
X0186932Y0199464D01*
X0186848Y0199402D01*
X0186761Y0199345D01*
X0186672Y0199290D01*
X0186581Y0199239D01*
X0186488Y0199191D01*
X0186394Y0199147D01*
X0186298Y0199107D01*
X0186200Y0199070D01*
X0186101Y0199037D01*
X0186001Y0199007D01*
X0185900Y0198982D01*
X0185798Y0198960D01*
X0185695Y0198943D01*
X0185591Y0198929D01*
X0185488Y0198919D01*
X0185383Y0198913D01*
X0185279Y0198911D01*
X0185175Y0198913D01*
X0185070Y0198919D01*
X0184967Y0198929D01*
X0184863Y0198943D01*
X0184760Y0198960D01*
X0184658Y0198982D01*
X0184557Y0199007D01*
X0184457Y0199037D01*
X0184358Y0199070D01*
X0184260Y0199107D01*
X0184164Y0199147D01*
X0184070Y0199191D01*
X0183977Y0199239D01*
X0183886Y0199290D01*
X0183797Y0199345D01*
X0183710Y0199402D01*
X0183626Y0199464D01*
X0183543Y0199528D01*
X0183464Y0199595D01*
X0183387Y0199666D01*
X0183312Y0199739D01*
X0183241Y0199815D01*
X0183172Y0199894D01*
X0183107Y0199975D01*
X0183044Y0200058D01*
X0182985Y0200144D01*
X0182929Y0200232D01*
X0182877Y0200323D01*
X0182828Y0200415D01*
X0182782Y0200509D01*
X0182740Y0200604D01*
X0182702Y0200701D01*
X0182667Y0200800D01*
X0182637Y0200899D01*
X0182610Y0201000D01*
X0182586Y0201102D01*
X0182567Y0201204D01*
X0182552Y0201308D01*
X0182540Y0201411D01*
X0183017Y0201412D01*
X0183029Y0201317D01*
X0183045Y0201224D01*
X0183066Y0201131D01*
X0183090Y0201039D01*
X0183118Y0200948D01*
X0183149Y0200859D01*
X0183184Y0200770D01*
X0183223Y0200684D01*
X0183266Y0200599D01*
X0183312Y0200516D01*
X0183362Y0200435D01*
X0183414Y0200356D01*
X0183471Y0200279D01*
X0183530Y0200205D01*
X0183592Y0200133D01*
X0183657Y0200064D01*
X0183725Y0199998D01*
X0183796Y0199934D01*
X0183869Y0199874D01*
X0183945Y0199817D01*
X0184023Y0199763D01*
X0184104Y0199712D01*
X0184186Y0199665D01*
X0184270Y0199621D01*
X0184356Y0199580D01*
X0184444Y0199544D01*
X0184533Y0199511D01*
X0184623Y0199481D01*
X0184715Y0199456D01*
X0184807Y0199434D01*
X0184901Y0199417D01*
X0184995Y0199403D01*
X0185089Y0199393D01*
X0185184Y0199387D01*
X0185279Y0199385D01*
X0185374Y0199387D01*
X0185469Y0199393D01*
X0185563Y0199403D01*
X0185657Y0199417D01*
X0185751Y0199434D01*
X0185843Y0199456D01*
X0185935Y0199481D01*
X0186025Y0199511D01*
X0186114Y0199544D01*
X0186202Y0199580D01*
X0186288Y0199621D01*
X0186372Y0199665D01*
X0186454Y0199712D01*
X0186535Y0199763D01*
X0186613Y0199817D01*
X0186689Y0199874D01*
X0186762Y0199934D01*
X0186833Y0199998D01*
X0186901Y0200064D01*
X0186966Y0200133D01*
X0187028Y0200205D01*
X0187087Y0200279D01*
X0187144Y0200356D01*
X0187196Y0200435D01*
X0187246Y0200516D01*
X0187292Y0200599D01*
X0187335Y0200684D01*
X0187374Y0200770D01*
X0187409Y0200859D01*
X0187440Y0200948D01*
X0187468Y0201039D01*
X0187492Y0201131D01*
X0187513Y0201224D01*
X0187529Y0201317D01*
X0187541Y0201412D01*
X0187064Y0201412D01*
X0187050Y0201330D01*
X0187033Y0201248D01*
X0187012Y0201168D01*
X0186988Y0201088D01*
X0186959Y0201010D01*
X0186927Y0200933D01*
X0186892Y0200858D01*
X0186853Y0200784D01*
X0186811Y0200712D01*
X0186766Y0200642D01*
X0186717Y0200575D01*
X0186665Y0200510D01*
X0186611Y0200447D01*
X0186553Y0200387D01*
X0186493Y0200329D01*
X0186430Y0200275D01*
X0186365Y0200223D01*
X0186297Y0200174D01*
X0186228Y0200129D01*
X0186156Y0200087D01*
X0186082Y0200048D01*
X0186007Y0200013D01*
X0185930Y0199981D01*
X0185852Y0199952D01*
X0185772Y0199928D01*
X0185692Y0199907D01*
X0185610Y0199890D01*
X0185528Y0199876D01*
X0185445Y0199867D01*
X0185362Y0199861D01*
X0185279Y0199859D01*
X0185196Y0199861D01*
X0185113Y0199867D01*
X0185030Y0199876D01*
X0184948Y0199890D01*
X0184866Y0199907D01*
X0184786Y0199928D01*
X0184706Y0199952D01*
X0184628Y0199981D01*
X0184551Y0200013D01*
X0184476Y0200048D01*
X0184402Y0200087D01*
X0184330Y0200129D01*
X0184261Y0200174D01*
X0184193Y0200223D01*
X0184128Y0200275D01*
X0184065Y0200329D01*
X0184005Y0200387D01*
X0183947Y0200447D01*
X0183893Y0200510D01*
X0183841Y0200575D01*
X0183792Y0200642D01*
X0183747Y0200712D01*
X0183705Y0200784D01*
X0183666Y0200858D01*
X0183631Y0200933D01*
X0183599Y0201010D01*
X0183570Y0201088D01*
X0183546Y0201168D01*
X0183525Y0201248D01*
X0183508Y0201330D01*
X0183494Y0201412D01*
X0183974Y0201412D01*
X0183990Y0201342D01*
X0184009Y0201273D01*
X0184032Y0201205D01*
X0184058Y0201138D01*
X0184089Y0201072D01*
X0184122Y0201009D01*
X0184159Y0200947D01*
X0184200Y0200887D01*
X0184243Y0200830D01*
X0184290Y0200775D01*
X0184339Y0200723D01*
X0184391Y0200673D01*
X0184446Y0200626D01*
X0184504Y0200583D01*
X0184563Y0200542D01*
X0184625Y0200505D01*
X0184688Y0200472D01*
X0184754Y0200441D01*
X0184821Y0200415D01*
X0184889Y0200392D01*
X0184958Y0200372D01*
X0185029Y0200357D01*
X0185100Y0200345D01*
X0185171Y0200337D01*
X0185243Y0200333D01*
X0185315Y0200333D01*
X0185387Y0200337D01*
X0185458Y0200345D01*
X0185529Y0200357D01*
X0185600Y0200372D01*
X0185669Y0200392D01*
X0185737Y0200415D01*
X0185804Y0200441D01*
X0185870Y0200472D01*
X0185933Y0200505D01*
X0185995Y0200542D01*
X0186054Y0200583D01*
X0186112Y0200626D01*
X0186167Y0200673D01*
X0186219Y0200723D01*
X0186268Y0200775D01*
X0186315Y0200830D01*
X0186358Y0200887D01*
X0186399Y0200947D01*
X0186436Y0201009D01*
X0186469Y0201072D01*
X0186500Y0201138D01*
X0186526Y0201205D01*
X0186549Y0201273D01*
X0186568Y0201342D01*
X0186584Y0201412D01*
X0186097Y0201415D01*
X0186078Y0201360D01*
X0186056Y0201307D01*
X0186031Y0201256D01*
X0186002Y0201206D01*
X0185970Y0201159D01*
X0185934Y0201113D01*
X0185896Y0201070D01*
X0185855Y0201030D01*
X0185811Y0200993D01*
X0185765Y0200959D01*
X0185717Y0200928D01*
X0185666Y0200900D01*
X0185614Y0200876D01*
X0185561Y0200855D01*
X0185506Y0200838D01*
X0185450Y0200824D01*
X0185394Y0200815D01*
X0185336Y0200809D01*
X0185279Y0200807D01*
X0185222Y0200809D01*
X0185164Y0200815D01*
X0185108Y0200824D01*
X0185052Y0200838D01*
X0184997Y0200855D01*
X0184944Y0200876D01*
X0184892Y0200900D01*
X0184841Y0200928D01*
X0184793Y0200959D01*
X0184747Y0200993D01*
X0184703Y0201030D01*
X0184662Y0201070D01*
X0184624Y0201113D01*
X0184588Y0201159D01*
X0184556Y0201206D01*
X0184527Y0201256D01*
X0184502Y0201307D01*
X0184480Y0201360D01*
X0184461Y0201415D01*
X0184978Y0201429D01*
X0185002Y0201401D01*
X0185028Y0201375D01*
X0185057Y0201353D01*
X0185087Y0201333D01*
X0185120Y0201316D01*
X0185154Y0201302D01*
X0185189Y0201292D01*
X0185224Y0201285D01*
X0185261Y0201281D01*
X0185297Y0201281D01*
X0185334Y0201285D01*
X0185369Y0201292D01*
X0185404Y0201302D01*
X0185438Y0201316D01*
X0185471Y0201333D01*
X0185501Y0201353D01*
X0185530Y0201375D01*
X0185556Y0201401D01*
X0185580Y0201429D01*
X0195358Y0197000D02*
X0195360Y0197141D01*
X0195366Y0197282D01*
X0195376Y0197422D01*
X0195390Y0197562D01*
X0195408Y0197702D01*
X0195429Y0197841D01*
X0195455Y0197980D01*
X0195484Y0198118D01*
X0195518Y0198254D01*
X0195555Y0198390D01*
X0195596Y0198525D01*
X0195641Y0198659D01*
X0195690Y0198791D01*
X0195742Y0198922D01*
X0195798Y0199051D01*
X0195858Y0199178D01*
X0195921Y0199304D01*
X0195987Y0199428D01*
X0196058Y0199551D01*
X0196131Y0199671D01*
X0196208Y0199789D01*
X0196288Y0199905D01*
X0196372Y0200018D01*
X0196458Y0200129D01*
X0196548Y0200238D01*
X0196641Y0200344D01*
X0196736Y0200447D01*
X0196835Y0200548D01*
X0196936Y0200646D01*
X0197040Y0200741D01*
X0197147Y0200833D01*
X0197256Y0200922D01*
X0197368Y0201007D01*
X0197482Y0201090D01*
X0197598Y0201170D01*
X0197717Y0201246D01*
X0197838Y0201318D01*
X0197960Y0201388D01*
X0198085Y0201453D01*
X0198211Y0201516D01*
X0198339Y0201574D01*
X0198469Y0201629D01*
X0198600Y0201681D01*
X0198733Y0201728D01*
X0198867Y0201772D01*
X0199002Y0201813D01*
X0199138Y0201849D01*
X0199275Y0201881D01*
X0199413Y0201910D01*
X0199551Y0201935D01*
X0199691Y0201955D01*
X0199831Y0201972D01*
X0199971Y0201985D01*
X0200112Y0201994D01*
X0200252Y0201999D01*
X0200393Y0202000D01*
X0200534Y0201997D01*
X0200675Y0201990D01*
X0200815Y0201979D01*
X0200955Y0201964D01*
X0201095Y0201945D01*
X0201234Y0201923D01*
X0201372Y0201896D01*
X0201510Y0201866D01*
X0201646Y0201831D01*
X0201782Y0201793D01*
X0201916Y0201751D01*
X0202050Y0201705D01*
X0202182Y0201656D01*
X0202312Y0201602D01*
X0202441Y0201545D01*
X0202568Y0201485D01*
X0202694Y0201421D01*
X0202817Y0201353D01*
X0202939Y0201282D01*
X0203059Y0201208D01*
X0203176Y0201130D01*
X0203291Y0201049D01*
X0203404Y0200965D01*
X0203515Y0200878D01*
X0203623Y0200787D01*
X0203728Y0200694D01*
X0203831Y0200597D01*
X0203931Y0200498D01*
X0204028Y0200396D01*
X0204122Y0200291D01*
X0204213Y0200184D01*
X0204301Y0200074D01*
X0204386Y0199962D01*
X0204468Y0199847D01*
X0204547Y0199730D01*
X0204622Y0199611D01*
X0204694Y0199490D01*
X0204762Y0199367D01*
X0204827Y0199242D01*
X0204889Y0199115D01*
X0204946Y0198986D01*
X0205001Y0198856D01*
X0205051Y0198725D01*
X0205098Y0198592D01*
X0205141Y0198458D01*
X0205180Y0198322D01*
X0205215Y0198186D01*
X0205247Y0198049D01*
X0205274Y0197911D01*
X0205298Y0197772D01*
X0205318Y0197632D01*
X0205334Y0197492D01*
X0205346Y0197352D01*
X0205354Y0197211D01*
X0205358Y0197070D01*
X0205358Y0196930D01*
X0205354Y0196789D01*
X0205346Y0196648D01*
X0205334Y0196508D01*
X0205318Y0196368D01*
X0205298Y0196228D01*
X0205274Y0196089D01*
X0205247Y0195951D01*
X0205215Y0195814D01*
X0205180Y0195678D01*
X0205141Y0195542D01*
X0205098Y0195408D01*
X0205051Y0195275D01*
X0205001Y0195144D01*
X0204946Y0195014D01*
X0204889Y0194885D01*
X0204827Y0194758D01*
X0204762Y0194633D01*
X0204694Y0194510D01*
X0204622Y0194389D01*
X0204547Y0194270D01*
X0204468Y0194153D01*
X0204386Y0194038D01*
X0204301Y0193926D01*
X0204213Y0193816D01*
X0204122Y0193709D01*
X0204028Y0193604D01*
X0203931Y0193502D01*
X0203831Y0193403D01*
X0203728Y0193306D01*
X0203623Y0193213D01*
X0203515Y0193122D01*
X0203404Y0193035D01*
X0203291Y0192951D01*
X0203176Y0192870D01*
X0203059Y0192792D01*
X0202939Y0192718D01*
X0202817Y0192647D01*
X0202694Y0192579D01*
X0202568Y0192515D01*
X0202441Y0192455D01*
X0202312Y0192398D01*
X0202182Y0192344D01*
X0202050Y0192295D01*
X0201916Y0192249D01*
X0201782Y0192207D01*
X0201646Y0192169D01*
X0201510Y0192134D01*
X0201372Y0192104D01*
X0201234Y0192077D01*
X0201095Y0192055D01*
X0200955Y0192036D01*
X0200815Y0192021D01*
X0200675Y0192010D01*
X0200534Y0192003D01*
X0200393Y0192000D01*
X0200252Y0192001D01*
X0200112Y0192006D01*
X0199971Y0192015D01*
X0199831Y0192028D01*
X0199691Y0192045D01*
X0199551Y0192065D01*
X0199413Y0192090D01*
X0199275Y0192119D01*
X0199138Y0192151D01*
X0199002Y0192187D01*
X0198867Y0192228D01*
X0198733Y0192272D01*
X0198600Y0192319D01*
X0198469Y0192371D01*
X0198339Y0192426D01*
X0198211Y0192484D01*
X0198085Y0192547D01*
X0197960Y0192612D01*
X0197838Y0192682D01*
X0197717Y0192754D01*
X0197598Y0192830D01*
X0197482Y0192910D01*
X0197368Y0192993D01*
X0197256Y0193078D01*
X0197147Y0193167D01*
X0197040Y0193259D01*
X0196936Y0193354D01*
X0196835Y0193452D01*
X0196736Y0193553D01*
X0196641Y0193656D01*
X0196548Y0193762D01*
X0196458Y0193871D01*
X0196372Y0193982D01*
X0196288Y0194095D01*
X0196208Y0194211D01*
X0196131Y0194329D01*
X0196058Y0194449D01*
X0195987Y0194572D01*
X0195921Y0194696D01*
X0195858Y0194822D01*
X0195798Y0194949D01*
X0195742Y0195078D01*
X0195690Y0195209D01*
X0195641Y0195341D01*
X0195596Y0195475D01*
X0195555Y0195610D01*
X0195518Y0195746D01*
X0195484Y0195882D01*
X0195455Y0196020D01*
X0195429Y0196159D01*
X0195408Y0196298D01*
X0195390Y0196438D01*
X0195376Y0196578D01*
X0195366Y0196718D01*
X0195360Y0196859D01*
X0195358Y0197000D01*
X0158610Y0240146D02*
X0160112Y0241647D01*
X0155608Y0241647D01*
X0155608Y0240146D02*
X0155608Y0243149D01*
X0203409Y0256050D02*
X0206412Y0256050D01*
X0203409Y0259053D01*
X0203409Y0259803D01*
X0204160Y0260554D01*
X0205661Y0260554D01*
X0206412Y0259803D01*
X0208013Y0259803D02*
X0208013Y0258302D01*
X0208764Y0257551D01*
X0211016Y0257551D01*
X0211016Y0256050D02*
X0211016Y0260554D01*
X0208764Y0260554D01*
X0208013Y0259803D01*
X0212617Y0260554D02*
X0214118Y0260554D01*
X0213368Y0260554D02*
X0213368Y0256801D01*
X0214118Y0256050D01*
X0214869Y0256050D01*
X0215620Y0256801D01*
X0195358Y0027000D02*
X0195360Y0027141D01*
X0195366Y0027282D01*
X0195376Y0027422D01*
X0195390Y0027562D01*
X0195408Y0027702D01*
X0195429Y0027841D01*
X0195455Y0027980D01*
X0195484Y0028118D01*
X0195518Y0028254D01*
X0195555Y0028390D01*
X0195596Y0028525D01*
X0195641Y0028659D01*
X0195690Y0028791D01*
X0195742Y0028922D01*
X0195798Y0029051D01*
X0195858Y0029178D01*
X0195921Y0029304D01*
X0195987Y0029428D01*
X0196058Y0029551D01*
X0196131Y0029671D01*
X0196208Y0029789D01*
X0196288Y0029905D01*
X0196372Y0030018D01*
X0196458Y0030129D01*
X0196548Y0030238D01*
X0196641Y0030344D01*
X0196736Y0030447D01*
X0196835Y0030548D01*
X0196936Y0030646D01*
X0197040Y0030741D01*
X0197147Y0030833D01*
X0197256Y0030922D01*
X0197368Y0031007D01*
X0197482Y0031090D01*
X0197598Y0031170D01*
X0197717Y0031246D01*
X0197838Y0031318D01*
X0197960Y0031388D01*
X0198085Y0031453D01*
X0198211Y0031516D01*
X0198339Y0031574D01*
X0198469Y0031629D01*
X0198600Y0031681D01*
X0198733Y0031728D01*
X0198867Y0031772D01*
X0199002Y0031813D01*
X0199138Y0031849D01*
X0199275Y0031881D01*
X0199413Y0031910D01*
X0199551Y0031935D01*
X0199691Y0031955D01*
X0199831Y0031972D01*
X0199971Y0031985D01*
X0200112Y0031994D01*
X0200252Y0031999D01*
X0200393Y0032000D01*
X0200534Y0031997D01*
X0200675Y0031990D01*
X0200815Y0031979D01*
X0200955Y0031964D01*
X0201095Y0031945D01*
X0201234Y0031923D01*
X0201372Y0031896D01*
X0201510Y0031866D01*
X0201646Y0031831D01*
X0201782Y0031793D01*
X0201916Y0031751D01*
X0202050Y0031705D01*
X0202182Y0031656D01*
X0202312Y0031602D01*
X0202441Y0031545D01*
X0202568Y0031485D01*
X0202694Y0031421D01*
X0202817Y0031353D01*
X0202939Y0031282D01*
X0203059Y0031208D01*
X0203176Y0031130D01*
X0203291Y0031049D01*
X0203404Y0030965D01*
X0203515Y0030878D01*
X0203623Y0030787D01*
X0203728Y0030694D01*
X0203831Y0030597D01*
X0203931Y0030498D01*
X0204028Y0030396D01*
X0204122Y0030291D01*
X0204213Y0030184D01*
X0204301Y0030074D01*
X0204386Y0029962D01*
X0204468Y0029847D01*
X0204547Y0029730D01*
X0204622Y0029611D01*
X0204694Y0029490D01*
X0204762Y0029367D01*
X0204827Y0029242D01*
X0204889Y0029115D01*
X0204946Y0028986D01*
X0205001Y0028856D01*
X0205051Y0028725D01*
X0205098Y0028592D01*
X0205141Y0028458D01*
X0205180Y0028322D01*
X0205215Y0028186D01*
X0205247Y0028049D01*
X0205274Y0027911D01*
X0205298Y0027772D01*
X0205318Y0027632D01*
X0205334Y0027492D01*
X0205346Y0027352D01*
X0205354Y0027211D01*
X0205358Y0027070D01*
X0205358Y0026930D01*
X0205354Y0026789D01*
X0205346Y0026648D01*
X0205334Y0026508D01*
X0205318Y0026368D01*
X0205298Y0026228D01*
X0205274Y0026089D01*
X0205247Y0025951D01*
X0205215Y0025814D01*
X0205180Y0025678D01*
X0205141Y0025542D01*
X0205098Y0025408D01*
X0205051Y0025275D01*
X0205001Y0025144D01*
X0204946Y0025014D01*
X0204889Y0024885D01*
X0204827Y0024758D01*
X0204762Y0024633D01*
X0204694Y0024510D01*
X0204622Y0024389D01*
X0204547Y0024270D01*
X0204468Y0024153D01*
X0204386Y0024038D01*
X0204301Y0023926D01*
X0204213Y0023816D01*
X0204122Y0023709D01*
X0204028Y0023604D01*
X0203931Y0023502D01*
X0203831Y0023403D01*
X0203728Y0023306D01*
X0203623Y0023213D01*
X0203515Y0023122D01*
X0203404Y0023035D01*
X0203291Y0022951D01*
X0203176Y0022870D01*
X0203059Y0022792D01*
X0202939Y0022718D01*
X0202817Y0022647D01*
X0202694Y0022579D01*
X0202568Y0022515D01*
X0202441Y0022455D01*
X0202312Y0022398D01*
X0202182Y0022344D01*
X0202050Y0022295D01*
X0201916Y0022249D01*
X0201782Y0022207D01*
X0201646Y0022169D01*
X0201510Y0022134D01*
X0201372Y0022104D01*
X0201234Y0022077D01*
X0201095Y0022055D01*
X0200955Y0022036D01*
X0200815Y0022021D01*
X0200675Y0022010D01*
X0200534Y0022003D01*
X0200393Y0022000D01*
X0200252Y0022001D01*
X0200112Y0022006D01*
X0199971Y0022015D01*
X0199831Y0022028D01*
X0199691Y0022045D01*
X0199551Y0022065D01*
X0199413Y0022090D01*
X0199275Y0022119D01*
X0199138Y0022151D01*
X0199002Y0022187D01*
X0198867Y0022228D01*
X0198733Y0022272D01*
X0198600Y0022319D01*
X0198469Y0022371D01*
X0198339Y0022426D01*
X0198211Y0022484D01*
X0198085Y0022547D01*
X0197960Y0022612D01*
X0197838Y0022682D01*
X0197717Y0022754D01*
X0197598Y0022830D01*
X0197482Y0022910D01*
X0197368Y0022993D01*
X0197256Y0023078D01*
X0197147Y0023167D01*
X0197040Y0023259D01*
X0196936Y0023354D01*
X0196835Y0023452D01*
X0196736Y0023553D01*
X0196641Y0023656D01*
X0196548Y0023762D01*
X0196458Y0023871D01*
X0196372Y0023982D01*
X0196288Y0024095D01*
X0196208Y0024211D01*
X0196131Y0024329D01*
X0196058Y0024449D01*
X0195987Y0024572D01*
X0195921Y0024696D01*
X0195858Y0024822D01*
X0195798Y0024949D01*
X0195742Y0025078D01*
X0195690Y0025209D01*
X0195641Y0025341D01*
X0195596Y0025475D01*
X0195555Y0025610D01*
X0195518Y0025746D01*
X0195484Y0025882D01*
X0195455Y0026020D01*
X0195429Y0026159D01*
X0195408Y0026298D01*
X0195390Y0026438D01*
X0195376Y0026578D01*
X0195366Y0026718D01*
X0195360Y0026859D01*
X0195358Y0027000D01*
X0115358Y0027000D02*
X0115360Y0027141D01*
X0115366Y0027282D01*
X0115376Y0027422D01*
X0115390Y0027562D01*
X0115408Y0027702D01*
X0115429Y0027841D01*
X0115455Y0027980D01*
X0115484Y0028118D01*
X0115518Y0028254D01*
X0115555Y0028390D01*
X0115596Y0028525D01*
X0115641Y0028659D01*
X0115690Y0028791D01*
X0115742Y0028922D01*
X0115798Y0029051D01*
X0115858Y0029178D01*
X0115921Y0029304D01*
X0115987Y0029428D01*
X0116058Y0029551D01*
X0116131Y0029671D01*
X0116208Y0029789D01*
X0116288Y0029905D01*
X0116372Y0030018D01*
X0116458Y0030129D01*
X0116548Y0030238D01*
X0116641Y0030344D01*
X0116736Y0030447D01*
X0116835Y0030548D01*
X0116936Y0030646D01*
X0117040Y0030741D01*
X0117147Y0030833D01*
X0117256Y0030922D01*
X0117368Y0031007D01*
X0117482Y0031090D01*
X0117598Y0031170D01*
X0117717Y0031246D01*
X0117838Y0031318D01*
X0117960Y0031388D01*
X0118085Y0031453D01*
X0118211Y0031516D01*
X0118339Y0031574D01*
X0118469Y0031629D01*
X0118600Y0031681D01*
X0118733Y0031728D01*
X0118867Y0031772D01*
X0119002Y0031813D01*
X0119138Y0031849D01*
X0119275Y0031881D01*
X0119413Y0031910D01*
X0119551Y0031935D01*
X0119691Y0031955D01*
X0119831Y0031972D01*
X0119971Y0031985D01*
X0120112Y0031994D01*
X0120252Y0031999D01*
X0120393Y0032000D01*
X0120534Y0031997D01*
X0120675Y0031990D01*
X0120815Y0031979D01*
X0120955Y0031964D01*
X0121095Y0031945D01*
X0121234Y0031923D01*
X0121372Y0031896D01*
X0121510Y0031866D01*
X0121646Y0031831D01*
X0121782Y0031793D01*
X0121916Y0031751D01*
X0122050Y0031705D01*
X0122182Y0031656D01*
X0122312Y0031602D01*
X0122441Y0031545D01*
X0122568Y0031485D01*
X0122694Y0031421D01*
X0122817Y0031353D01*
X0122939Y0031282D01*
X0123059Y0031208D01*
X0123176Y0031130D01*
X0123291Y0031049D01*
X0123404Y0030965D01*
X0123515Y0030878D01*
X0123623Y0030787D01*
X0123728Y0030694D01*
X0123831Y0030597D01*
X0123931Y0030498D01*
X0124028Y0030396D01*
X0124122Y0030291D01*
X0124213Y0030184D01*
X0124301Y0030074D01*
X0124386Y0029962D01*
X0124468Y0029847D01*
X0124547Y0029730D01*
X0124622Y0029611D01*
X0124694Y0029490D01*
X0124762Y0029367D01*
X0124827Y0029242D01*
X0124889Y0029115D01*
X0124946Y0028986D01*
X0125001Y0028856D01*
X0125051Y0028725D01*
X0125098Y0028592D01*
X0125141Y0028458D01*
X0125180Y0028322D01*
X0125215Y0028186D01*
X0125247Y0028049D01*
X0125274Y0027911D01*
X0125298Y0027772D01*
X0125318Y0027632D01*
X0125334Y0027492D01*
X0125346Y0027352D01*
X0125354Y0027211D01*
X0125358Y0027070D01*
X0125358Y0026930D01*
X0125354Y0026789D01*
X0125346Y0026648D01*
X0125334Y0026508D01*
X0125318Y0026368D01*
X0125298Y0026228D01*
X0125274Y0026089D01*
X0125247Y0025951D01*
X0125215Y0025814D01*
X0125180Y0025678D01*
X0125141Y0025542D01*
X0125098Y0025408D01*
X0125051Y0025275D01*
X0125001Y0025144D01*
X0124946Y0025014D01*
X0124889Y0024885D01*
X0124827Y0024758D01*
X0124762Y0024633D01*
X0124694Y0024510D01*
X0124622Y0024389D01*
X0124547Y0024270D01*
X0124468Y0024153D01*
X0124386Y0024038D01*
X0124301Y0023926D01*
X0124213Y0023816D01*
X0124122Y0023709D01*
X0124028Y0023604D01*
X0123931Y0023502D01*
X0123831Y0023403D01*
X0123728Y0023306D01*
X0123623Y0023213D01*
X0123515Y0023122D01*
X0123404Y0023035D01*
X0123291Y0022951D01*
X0123176Y0022870D01*
X0123059Y0022792D01*
X0122939Y0022718D01*
X0122817Y0022647D01*
X0122694Y0022579D01*
X0122568Y0022515D01*
X0122441Y0022455D01*
X0122312Y0022398D01*
X0122182Y0022344D01*
X0122050Y0022295D01*
X0121916Y0022249D01*
X0121782Y0022207D01*
X0121646Y0022169D01*
X0121510Y0022134D01*
X0121372Y0022104D01*
X0121234Y0022077D01*
X0121095Y0022055D01*
X0120955Y0022036D01*
X0120815Y0022021D01*
X0120675Y0022010D01*
X0120534Y0022003D01*
X0120393Y0022000D01*
X0120252Y0022001D01*
X0120112Y0022006D01*
X0119971Y0022015D01*
X0119831Y0022028D01*
X0119691Y0022045D01*
X0119551Y0022065D01*
X0119413Y0022090D01*
X0119275Y0022119D01*
X0119138Y0022151D01*
X0119002Y0022187D01*
X0118867Y0022228D01*
X0118733Y0022272D01*
X0118600Y0022319D01*
X0118469Y0022371D01*
X0118339Y0022426D01*
X0118211Y0022484D01*
X0118085Y0022547D01*
X0117960Y0022612D01*
X0117838Y0022682D01*
X0117717Y0022754D01*
X0117598Y0022830D01*
X0117482Y0022910D01*
X0117368Y0022993D01*
X0117256Y0023078D01*
X0117147Y0023167D01*
X0117040Y0023259D01*
X0116936Y0023354D01*
X0116835Y0023452D01*
X0116736Y0023553D01*
X0116641Y0023656D01*
X0116548Y0023762D01*
X0116458Y0023871D01*
X0116372Y0023982D01*
X0116288Y0024095D01*
X0116208Y0024211D01*
X0116131Y0024329D01*
X0116058Y0024449D01*
X0115987Y0024572D01*
X0115921Y0024696D01*
X0115858Y0024822D01*
X0115798Y0024949D01*
X0115742Y0025078D01*
X0115690Y0025209D01*
X0115641Y0025341D01*
X0115596Y0025475D01*
X0115555Y0025610D01*
X0115518Y0025746D01*
X0115484Y0025882D01*
X0115455Y0026020D01*
X0115429Y0026159D01*
X0115408Y0026298D01*
X0115390Y0026438D01*
X0115376Y0026578D01*
X0115366Y0026718D01*
X0115360Y0026859D01*
X0115358Y0027000D01*
D14*
X0151045Y0108300D02*
X0155315Y0108300D01*
X0153180Y0108300D02*
X0153180Y0114705D01*
X0155315Y0112570D01*
X0157491Y0113638D02*
X0158558Y0114705D01*
X0160693Y0114705D01*
X0161761Y0113638D01*
X0161761Y0109368D01*
X0160693Y0108300D01*
X0158558Y0108300D01*
X0157491Y0109368D01*
X0163923Y0108300D02*
X0166058Y0108300D01*
X0164990Y0108300D02*
X0164990Y0114705D01*
X0163923Y0114705D02*
X0166058Y0114705D01*
X0141590Y0154969D02*
X0124590Y0154969D01*
X0124530Y0154971D01*
X0124469Y0154976D01*
X0124410Y0154985D01*
X0124351Y0154998D01*
X0124292Y0155014D01*
X0124235Y0155034D01*
X0124180Y0155057D01*
X0124125Y0155084D01*
X0124073Y0155113D01*
X0124022Y0155146D01*
X0123973Y0155182D01*
X0123927Y0155220D01*
X0123883Y0155262D01*
X0123841Y0155306D01*
X0123803Y0155352D01*
X0123767Y0155401D01*
X0123734Y0155452D01*
X0123705Y0155504D01*
X0123678Y0155559D01*
X0123655Y0155614D01*
X0123635Y0155671D01*
X0123619Y0155730D01*
X0123606Y0155789D01*
X0123597Y0155848D01*
X0123592Y0155909D01*
X0123590Y0155969D01*
X0123590Y0161969D01*
X0123592Y0162029D01*
X0123597Y0162090D01*
X0123606Y0162149D01*
X0123619Y0162208D01*
X0123635Y0162267D01*
X0123655Y0162324D01*
X0123678Y0162379D01*
X0123705Y0162434D01*
X0123734Y0162486D01*
X0123767Y0162537D01*
X0123803Y0162586D01*
X0123841Y0162632D01*
X0123883Y0162676D01*
X0123927Y0162718D01*
X0123973Y0162756D01*
X0124022Y0162792D01*
X0124073Y0162825D01*
X0124125Y0162854D01*
X0124180Y0162881D01*
X0124235Y0162904D01*
X0124292Y0162924D01*
X0124351Y0162940D01*
X0124410Y0162953D01*
X0124469Y0162962D01*
X0124530Y0162967D01*
X0124590Y0162969D01*
X0141590Y0162969D01*
X0141650Y0162967D01*
X0141711Y0162962D01*
X0141770Y0162953D01*
X0141829Y0162940D01*
X0141888Y0162924D01*
X0141945Y0162904D01*
X0142000Y0162881D01*
X0142055Y0162854D01*
X0142107Y0162825D01*
X0142158Y0162792D01*
X0142207Y0162756D01*
X0142253Y0162718D01*
X0142297Y0162676D01*
X0142339Y0162632D01*
X0142377Y0162586D01*
X0142413Y0162537D01*
X0142446Y0162486D01*
X0142475Y0162434D01*
X0142502Y0162379D01*
X0142525Y0162324D01*
X0142545Y0162267D01*
X0142561Y0162208D01*
X0142574Y0162149D01*
X0142583Y0162090D01*
X0142588Y0162029D01*
X0142590Y0161969D01*
X0142590Y0155969D01*
X0142588Y0155909D01*
X0142583Y0155848D01*
X0142574Y0155789D01*
X0142561Y0155730D01*
X0142545Y0155671D01*
X0142525Y0155614D01*
X0142502Y0155559D01*
X0142475Y0155504D01*
X0142446Y0155452D01*
X0142413Y0155401D01*
X0142377Y0155352D01*
X0142339Y0155306D01*
X0142297Y0155262D01*
X0142253Y0155220D01*
X0142207Y0155182D01*
X0142158Y0155146D01*
X0142107Y0155113D01*
X0142055Y0155084D01*
X0142000Y0155057D01*
X0141945Y0155034D01*
X0141888Y0155014D01*
X0141829Y0154998D01*
X0141770Y0154985D01*
X0141711Y0154976D01*
X0141650Y0154971D01*
X0141590Y0154969D01*
X0142090Y0158969D02*
X0140090Y0158969D01*
X0133090Y0161969D02*
X0133090Y0162969D01*
X0133090Y0155969D02*
X0133090Y0154969D01*
X0126090Y0158969D02*
X0124090Y0158969D01*
X0123590Y0177173D02*
X0140590Y0177173D01*
X0140650Y0177175D01*
X0140711Y0177180D01*
X0140770Y0177189D01*
X0140829Y0177202D01*
X0140888Y0177218D01*
X0140945Y0177238D01*
X0141000Y0177261D01*
X0141055Y0177288D01*
X0141107Y0177317D01*
X0141158Y0177350D01*
X0141207Y0177386D01*
X0141253Y0177424D01*
X0141297Y0177466D01*
X0141339Y0177510D01*
X0141377Y0177556D01*
X0141413Y0177605D01*
X0141446Y0177656D01*
X0141475Y0177708D01*
X0141502Y0177763D01*
X0141525Y0177818D01*
X0141545Y0177875D01*
X0141561Y0177934D01*
X0141574Y0177993D01*
X0141583Y0178052D01*
X0141588Y0178113D01*
X0141590Y0178173D01*
X0141590Y0184173D01*
X0141588Y0184233D01*
X0141583Y0184294D01*
X0141574Y0184353D01*
X0141561Y0184412D01*
X0141545Y0184471D01*
X0141525Y0184528D01*
X0141502Y0184583D01*
X0141475Y0184638D01*
X0141446Y0184690D01*
X0141413Y0184741D01*
X0141377Y0184790D01*
X0141339Y0184836D01*
X0141297Y0184880D01*
X0141253Y0184922D01*
X0141207Y0184960D01*
X0141158Y0184996D01*
X0141107Y0185029D01*
X0141055Y0185058D01*
X0141000Y0185085D01*
X0140945Y0185108D01*
X0140888Y0185128D01*
X0140829Y0185144D01*
X0140770Y0185157D01*
X0140711Y0185166D01*
X0140650Y0185171D01*
X0140590Y0185173D01*
X0123590Y0185173D01*
X0123530Y0185171D01*
X0123469Y0185166D01*
X0123410Y0185157D01*
X0123351Y0185144D01*
X0123292Y0185128D01*
X0123235Y0185108D01*
X0123180Y0185085D01*
X0123125Y0185058D01*
X0123073Y0185029D01*
X0123022Y0184996D01*
X0122973Y0184960D01*
X0122927Y0184922D01*
X0122883Y0184880D01*
X0122841Y0184836D01*
X0122803Y0184790D01*
X0122767Y0184741D01*
X0122734Y0184690D01*
X0122705Y0184638D01*
X0122678Y0184583D01*
X0122655Y0184528D01*
X0122635Y0184471D01*
X0122619Y0184412D01*
X0122606Y0184353D01*
X0122597Y0184294D01*
X0122592Y0184233D01*
X0122590Y0184173D01*
X0122590Y0178173D01*
X0122592Y0178113D01*
X0122597Y0178052D01*
X0122606Y0177993D01*
X0122619Y0177934D01*
X0122635Y0177875D01*
X0122655Y0177818D01*
X0122678Y0177763D01*
X0122705Y0177708D01*
X0122734Y0177656D01*
X0122767Y0177605D01*
X0122803Y0177556D01*
X0122841Y0177510D01*
X0122883Y0177466D01*
X0122927Y0177424D01*
X0122973Y0177386D01*
X0123022Y0177350D01*
X0123073Y0177317D01*
X0123125Y0177288D01*
X0123180Y0177261D01*
X0123235Y0177238D01*
X0123292Y0177218D01*
X0123351Y0177202D01*
X0123410Y0177189D01*
X0123469Y0177180D01*
X0123530Y0177175D01*
X0123590Y0177173D01*
X0123090Y0181173D02*
X0125090Y0181173D01*
X0132090Y0178173D02*
X0132090Y0177173D01*
X0139090Y0181173D02*
X0141090Y0181173D01*
X0132090Y0184173D02*
X0132090Y0185173D01*
X0181279Y0197161D02*
X0181279Y0214161D01*
X0181281Y0214221D01*
X0181286Y0214282D01*
X0181295Y0214341D01*
X0181308Y0214400D01*
X0181324Y0214459D01*
X0181344Y0214516D01*
X0181367Y0214571D01*
X0181394Y0214626D01*
X0181423Y0214678D01*
X0181456Y0214729D01*
X0181492Y0214778D01*
X0181530Y0214824D01*
X0181572Y0214868D01*
X0181616Y0214910D01*
X0181662Y0214948D01*
X0181711Y0214984D01*
X0181762Y0215017D01*
X0181814Y0215046D01*
X0181869Y0215073D01*
X0181924Y0215096D01*
X0181981Y0215116D01*
X0182040Y0215132D01*
X0182099Y0215145D01*
X0182158Y0215154D01*
X0182219Y0215159D01*
X0182279Y0215161D01*
X0188279Y0215161D01*
X0188339Y0215159D01*
X0188400Y0215154D01*
X0188459Y0215145D01*
X0188518Y0215132D01*
X0188577Y0215116D01*
X0188634Y0215096D01*
X0188689Y0215073D01*
X0188744Y0215046D01*
X0188796Y0215017D01*
X0188847Y0214984D01*
X0188896Y0214948D01*
X0188942Y0214910D01*
X0188986Y0214868D01*
X0189028Y0214824D01*
X0189066Y0214778D01*
X0189102Y0214729D01*
X0189135Y0214678D01*
X0189164Y0214626D01*
X0189191Y0214571D01*
X0189214Y0214516D01*
X0189234Y0214459D01*
X0189250Y0214400D01*
X0189263Y0214341D01*
X0189272Y0214282D01*
X0189277Y0214221D01*
X0189279Y0214161D01*
X0189279Y0197161D01*
X0189277Y0197101D01*
X0189272Y0197040D01*
X0189263Y0196981D01*
X0189250Y0196922D01*
X0189234Y0196863D01*
X0189214Y0196806D01*
X0189191Y0196751D01*
X0189164Y0196696D01*
X0189135Y0196644D01*
X0189102Y0196593D01*
X0189066Y0196544D01*
X0189028Y0196498D01*
X0188986Y0196454D01*
X0188942Y0196412D01*
X0188896Y0196374D01*
X0188847Y0196338D01*
X0188796Y0196305D01*
X0188744Y0196276D01*
X0188689Y0196249D01*
X0188634Y0196226D01*
X0188577Y0196206D01*
X0188518Y0196190D01*
X0188459Y0196177D01*
X0188400Y0196168D01*
X0188339Y0196163D01*
X0188279Y0196161D01*
X0182279Y0196161D01*
X0182219Y0196163D01*
X0182158Y0196168D01*
X0182099Y0196177D01*
X0182040Y0196190D01*
X0181981Y0196206D01*
X0181924Y0196226D01*
X0181869Y0196249D01*
X0181814Y0196276D01*
X0181762Y0196305D01*
X0181711Y0196338D01*
X0181662Y0196374D01*
X0181616Y0196412D01*
X0181572Y0196454D01*
X0181530Y0196498D01*
X0181492Y0196544D01*
X0181456Y0196593D01*
X0181423Y0196644D01*
X0181394Y0196696D01*
X0181367Y0196751D01*
X0181344Y0196806D01*
X0181324Y0196863D01*
X0181308Y0196922D01*
X0181295Y0196981D01*
X0181286Y0197040D01*
X0181281Y0197101D01*
X0181279Y0197161D01*
X0185279Y0196661D02*
X0185279Y0198661D01*
X0182279Y0205661D02*
X0181279Y0205661D01*
X0188279Y0205661D02*
X0189279Y0205661D01*
X0185279Y0212661D02*
X0185279Y0214661D01*
X0200358Y0214500D02*
X0202858Y0212000D01*
X0207858Y0212000D01*
X0210358Y0214500D01*
X0210358Y0219500D01*
X0207858Y0222000D01*
X0210358Y0224500D01*
X0210358Y0229500D01*
X0207858Y0232000D01*
X0210358Y0234500D01*
X0210358Y0239500D01*
X0207858Y0242000D01*
X0210358Y0244500D01*
X0210358Y0249500D01*
X0207858Y0252000D01*
X0202858Y0252000D01*
X0200358Y0249500D01*
X0200358Y0244500D01*
X0202858Y0242000D01*
X0200358Y0239500D01*
X0200358Y0234500D01*
X0202858Y0232000D01*
X0207858Y0232000D01*
X0202858Y0232000D02*
X0200358Y0229500D01*
X0200358Y0224500D01*
X0202858Y0222000D01*
X0200358Y0219500D01*
X0200358Y0214500D01*
X0202858Y0222000D02*
X0207858Y0222000D01*
X0207858Y0242000D02*
X0202858Y0242000D01*
D15*
X0132090Y0181173D03*
X0133090Y0158969D03*
D16*
X0130358Y0214000D02*
X0130358Y0250000D01*
X0162858Y0250000D01*
X0162858Y0214000D01*
X0130358Y0214000D01*
D17*
X0177608Y0222000D03*
X0177608Y0232000D03*
X0177608Y0242000D03*
D18*
X0170858Y0242000D03*
X0170858Y0232000D03*
X0170858Y0222000D03*
D19*
X0182608Y0222000D03*
X0182608Y0232000D03*
X0182608Y0242000D03*
D20*
X0149008Y0236104D02*
X0149008Y0231901D01*
X0147957Y0230850D01*
X0145855Y0230850D01*
X0144804Y0231901D01*
X0144804Y0236104D01*
X0145855Y0237155D01*
X0147957Y0237155D01*
X0149008Y0236104D01*
X0146906Y0232952D02*
X0144804Y0230850D01*
X0142562Y0230850D02*
X0138359Y0230850D01*
X0140461Y0230850D02*
X0140461Y0237155D01*
X0142562Y0235054D01*
D21*
X0205358Y0237000D03*
X0205358Y0227000D03*
X0205358Y0217000D03*
X0205358Y0247000D03*
D22*
X0185279Y0205661D03*
M02*
